<svg id="宝剑女王" xmlns="http://www.w3.org/2000/svg" viewBox="0 0 555.47 960.99"><defs><style>.cls-1,.cls-17,.cls-25{fill:#fff;}.cls-1,.cls-10,.cls-11,.cls-12,.cls-14,.cls-16,.cls-17,.cls-18,.cls-19,.cls-20,.cls-21,.cls-22,.cls-24,.cls-27,.cls-4,.cls-5,.cls-6,.cls-7,.cls-8,.cls-9{stroke:#231815;}.cls-1{stroke-linecap:round;stroke-linejoin:round;}.cls-1,.cls-10,.cls-11,.cls-12,.cls-13,.cls-14,.cls-16,.cls-17,.cls-18,.cls-19,.cls-20,.cls-21,.cls-22,.cls-23,.cls-24,.cls-25,.cls-26,.cls-27,.cls-28,.cls-29,.cls-3,.cls-4,.cls-5,.cls-6,.cls-7,.cls-8,.cls-9{stroke-width:2px;}.cls-2{fill:#8dd2d9;}.cls-16,.cls-3{fill:#d7f3f0;}.cls-3{stroke:#6fd3f2;}.cls-10,.cls-11,.cls-12,.cls-13,.cls-14,.cls-16,.cls-17,.cls-18,.cls-19,.cls-20,.cls-21,.cls-22,.cls-23,.cls-24,.cls-25,.cls-26,.cls-27,.cls-28,.cls-29,.cls-3,.cls-4,.cls-5,.cls-6,.cls-7,.cls-8,.cls-9{stroke-miterlimit:10;}.cls-4{fill:#8c8071;}.cls-5{fill:#6fd3f2;}.cls-6{fill:#ea5514;}.cls-7{fill:#006766;}.cls-8{fill:#f8b62d;}.cls-9{fill:#f9d1b9;}.cls-10{fill:#ff8200;}.cls-11{fill:#f6de00;}.cls-12,.cls-13,.cls-23,.cls-26{fill:none;}.cls-13{stroke:#ff8200;}.cls-14,.cls-29,.cls-30{fill:#231815;}.cls-15{fill:#ffadaf;}.cls-18{fill:#ff574a;}.cls-19{fill:#f0454e;}.cls-20{fill:#b4e7fb;}.cls-21{fill:#00baeb;}.cls-22{fill:#fffddd;}.cls-23{stroke:#ea5514;}.cls-24{fill:#f4e73f;}.cls-25,.cls-26,.cls-28,.cls-29{stroke:#a9cecc;}.cls-27{fill:#c4e3da;}.cls-28{fill:#a9cecc;}.cls-30{font-size:46px;font-family:ArialRoundedMTBold, Arial Rounded MT Bold;letter-spacing:0.05em;}.cls-31{letter-spacing:0.17em;}.cls-32{letter-spacing:0.05em;}.cls-33{letter-spacing:0.07em;}.cls-34{letter-spacing:0.06em;}</style></defs><g id="图层_15" data-name="图层 15"><rect class="cls-1" x="1" y="1" width="553.47" height="958.99" rx="31.02"/></g><g id="图层_14" data-name="图层 14"><rect class="cls-2" x="33.84" y="35.03" width="485.17" height="825.22"/></g><g id="图层_13" data-name="图层 13"><path class="cls-3" d="M1141,933V567.35s-6-5.79-12,8.43c0,0,2.11-36.87-33.44-29.33s-29.84,30.22-29.84,30.22-4.94-1-10.33,5.66-8.39-6.55-31.06,6.45c-21.2,24.9-4.37,30-4.37,30l12.77,319.71Z" transform="translate(-623.6 -137.08)"/><path class="cls-3" d="M976,658.83s-.41-18.74,14.29-31.45,24-3.38,24-3.38,2-10.6,28-8.3,41.16,30.3,41.16,30.3l6.18,127.84L1005.79,742Z" transform="translate(-623.6 -137.08)"/><path class="cls-3" d="M1023,773.84,1019.67,710s2.33-20.41,16.5-25.87,25.5,3.12,25.5,3.12-6-7.7,0-17.48,10.66-4.1,10.66-4.1a15.26,15.26,0,0,1,2.67-15.52c6.3-7.69,8.49-4.15,8.49-4.15s.18-11.67,23.51-11.5,34,19.86,34,19.86V957.43l-101.17-52.56Z" transform="translate(-623.6 -137.08)"/><path class="cls-3" d="M1029,790.2s-4.41-18.41,10.83-24,22.5,1.42,22.5,1.42-.1-24.26,12.67-28.67,24.67,3,24.67,3,16.66-11.42,24.66-7.7S1141,750,1141,750V964.82l-80-32.88Z" transform="translate(-623.6 -137.08)"/><path class="cls-3" d="M1069.62,903.84s1-17,12.33-17.5,15.22,2.62,15.22,2.62-5.44-8.48,0-11.14a27,27,0,0,1,10.11-2.76,23.38,23.38,0,0,1,8-16.16c8-7.06,26-.55,26-.55l1.32,123.11-75.28-51Z" transform="translate(-623.6 -137.08)"/><path class="cls-3" d="M718.63,634.5s10.87-27.42-13.63-39-47,2.32-47,2.32v52.29h5.71s-2.71,2,2.79,8.68,14.77,3.83,14.77,3.83v9.13s-10.77-.79-10.77,3.46c0,0-11.5-7.67-12.5-3.46s0,65.66,0,65.66a18.61,18.61,0,0,1,14.5-1.86c8,2.41,14,10,14,10L717.33,739l1.3-104.5" transform="translate(-623.6 -137.08)"/><path class="cls-3" d="M729,763.82s-9.5-36.9-32.5-34.61S671,740.66,671,740.66s-6.78-12.1-13.14-12.88V957.61L785.37,942l-40.7-160.59Z" transform="translate(-623.6 -137.08)"/><path class="cls-3" d="M752.86,855.85s-9.19-25.94-35.53-17.89S685,864.53,683.5,875.27c0,0-1-4.77-14.5-10.27s-11.44,0-11.44,0l.3,92.61L785.37,942l-32.51-86.11" transform="translate(-623.6 -137.08)"/><rect class="cls-4" x="65.69" y="741.24" width="8.06" height="53.62"/><rect class="cls-4" x="83.4" y="742.93" width="3.74" height="58.51"/><rect class="cls-4" x="100.56" y="764.26" width="2.83" height="30.6"/><path class="cls-5" d="M763.62,938.52S742.5,918,727.5,924.25,709,934.31,709,934.31s-9.91-9.57-19.71-7.94A27.63,27.63,0,0,0,674,934.31s-4-3.76-7.5,4.21-8.64,19.09-8.64,19.09v35.15s10.64-5.51,16.64-15.13,87-26.28,87-26.28Z" transform="translate(-623.6 -137.08)"/><path class="cls-6" d="M768.34,937.51s-31.78-11-47.31,0l-15.53,11s-13-10.5-23.5,0-9.5,21.87-9.5,21.87L657.86,987.5v9.83H707l54.5-40.79Z" transform="translate(-623.6 -137.08)"/><path class="cls-7" d="M686.5,832S683,818.5,698,818.5s19.33,6.75,19.33,6.75-.85,6.59-6.59,9.42c0,0,19.76,5,16.76,11.41S713.1,853,713.1,853s20.4,2,21.4,12-25.91,25.5-45.21,25-28.37-3.48-25.58-10,9.79-7.51,9.79-7.51-18.41-5.63-12-9.82a88,88,0,0,1,13-6.83s-6.5-8.77-1.5-16.56A15.9,15.9,0,0,1,686.5,832Z" transform="translate(-623.6 -137.08)"/><path class="cls-7" d="M717.33,892s13.17-4,13.67,0-6.83,9.34-6.83,9.34,6.33-4.16,6.83,0-25,11.66-27,9.41,3-9.41,3-9.41-7.44,1.18-3.47-4.33S717.33,892,717.33,892Z" transform="translate(-623.6 -137.08)"/><path class="cls-7" d="M727.5,909.4s8-2.59,12.5,0-12.5,8.1-12.5,8.1-12.33-.29-10.17-2.9S727.5,909.4,727.5,909.4Z" transform="translate(-623.6 -137.08)"/><path class="cls-8" d="M949.79,901.34s128.59-3.42,155.19,22.91,37.64,19.69,37.64,19.69v53.39H954.84Z" transform="translate(-623.6 -137.08)"/></g><g id="图层_12" data-name="图层 12"><circle class="cls-9" cx="194.4" cy="317.42" r="37.5"/><path class="cls-10" d="M849.5,424.5s-7-26-44-18.5S771,438,771,438s2,20.5-5.5,41.5S754,523.75,754,523.75l20-9.25s8.5-3.5,17.5-12.5,9-8.44,15.24-11.72,5.76-10.78,5.76-10.78,7.25-2.75,7.5-7.75-2-7.55-2-7.55,3.25-1.45,4-4.2-2-9.25-2-9.25,4.25-4.5,5.25-7.75-.5-8.25-.5-8.25a11.1,11.1,0,0,0,6.5-.75c3.5-1.5,5.75-5.5,5.75-5.5a5.21,5.21,0,0,0,6.25,1.5A17.6,17.6,0,0,0,849.5,424.5Z" transform="translate(-623.6 -137.08)"/><path class="cls-11" d="M768.25,441.25l83.25-18s-2.25-1-2-6.25,2-7.25,2-7.25.75,0,2.25-3-1.5-6.75-1.5-6.75,5.75.5,5.25-3a9.17,9.17,0,0,0-2-5s2-8-6-9.75a13.07,13.07,0,0,0-12.5,3.5s-4.25-4-8.5-3.86S819.25,385,816,388.5s-8.5,8.25-8.5,8.25-7.5-5.5-14-6.75-8.25.25-11,1.5a3.72,3.72,0,0,0-2,4.25s-5.75-6-10.25-5.25-7.75,2.25-10.75,7-9.75,7.14-9.75,7.14l8.75,5.11,10.75,17.5a62.77,62.77,0,0,1-2,6C765.75,437.25,768.25,441.25,768.25,441.25Z" transform="translate(-623.6 -137.08)"/><path class="cls-12" d="M807.75,398.25s3.75,7,3.25,9.5-1.6,2.75-1.6,2.75,5.94,5,1.65,9.25-3.8,4.75-9.3,6.25-9.75-4.75-9-7,.5-5.27,6.5-6.76S791,416,787,410a43.44,43.44,0,0,1-5.5-11.75" transform="translate(-623.6 -137.08)"/><path class="cls-12" d="M836.25,387.75a17.31,17.31,0,0,1,.45,7.53,15,15,0,0,1-.45,2c-1.5,5-1.75,9.75-10.75,12,0,0,2.13.79,2.5,5s.75,6-2.5,8.5-6,1.75-9.5,0a26.29,26.29,0,0,1-5-3" transform="translate(-623.6 -137.08)"/><path class="cls-10" d="M838,395.25a22,22,0,0,0,7.25,6,11.59,11.59,0,0,0-5.25,4.8c-2.24,3.7-.25,9.7-.25,9.7L828.22,417s2.59-2.61-.82-5.43l-3.4-2.82s10.7-.31,11.23-7.91S838,395.25,838,395.25Z" transform="translate(-623.6 -137.08)"/><path class="cls-6" d="M780.5,402s2,2.75,0,5.25-9.5,6.25-9.5,6.25,7.94-2.46,9.5,0,2.25,3.75,1,7.75-3,5-3,5l14.75-4.6s-1.75-1.84,0-4.63.91-4.05.91-4.05-4.27,2.11-7.16-2.95-4.32-8.3-4.32-8.3Z" transform="translate(-623.6 -137.08)"/><path class="cls-13" d="M811.05,383.67s1.27-3.4-1.43,4.08-2.12,9-2.12,9-.22-.61-.57-1.52a61.68,61.68,0,0,0-3.29-7.48,19.16,19.16,0,0,1-1.89-5.86" transform="translate(-623.6 -137.08)"/><circle class="cls-14" cx="216.06" cy="311.17" r="2.75"/><path class="cls-9" d="M855.5,448.25l6.25,10a6.12,6.12,0,0,1-1.5,2c-1.25,1.25-4.75,1.5-4.75,1.5Z" transform="translate(-623.6 -137.08)"/><circle class="cls-15" cx="213.31" cy="320.27" r="4.85"/><path class="cls-12" d="M845.25,466a15.11,15.11,0,0,0,4.25,3.75l2.24,1.12" transform="translate(-623.6 -137.08)"/><path class="cls-6" d="M890.33,576.67s2.67,12.66,30,12,32.67-6,32.67-6,.67,18,14.67,44.65,33.33,63.34,36.66,68S1015,704,1019.67,710s9.33,22.67,9.33,22.67l-69.33-19.34L895,654.67Z" transform="translate(-623.6 -137.08)"/><path class="cls-10" d="M1057.67,953.27s-2.67-11.58,6.66-16.76,20.67,0,20.67,0l24.67,16.76a191.23,191.23,0,0,1-22,4.16C1077,958.67,1057.67,953.27,1057.67,953.27Z" transform="translate(-623.6 -137.08)"/><path class="cls-16" d="M861.75,523.75s5.25-6.42,15.92-4.42,64,14.67,64,14.67,28-18,29.33-20-4,.67,1.33-2a13.38,13.38,0,0,0,6.67-8s4.67-2,12.67,8.67S998.33,534,998.33,534s2.67-7.33-4.66,7.33S983,576.67,983,576.67s2,2.66-10,8.66-35.33,11.34-51.33,10-46.67-24-46.67-24Z" transform="translate(-623.6 -137.08)"/><ellipse class="cls-6" cx="993.68" cy="513.77" rx="14.33" ry="18.52" transform="translate(-748.5 389.06) rotate(-27.97)"/><path class="cls-17" d="M812.61,532s10.31-5.33,22-4.67,14.88-3.58,14.88-3.58S866.33,536,875,542s14.67,15.33,15.33,22.67,6.67,36,6.67,36,5,22.83,8.5,31.33,13,27,22.5,37.5S989,704,989,704s21,4.5,25.5,8.5,15,12.5,18,23.5a89.46,89.46,0,0,1,3,21l30,115.55s-2-2.2,8,21.12,20,30.83,20,30.83,1.5,5.92,2,9.71S1093,942,1093,942h-9.54s13-.64-5,3.95S1067,953,1067,953s-9,12.5-27,11-47-29.74-47-29.74L978,834.5l-18.33-80-5.59-52-51.46-20-81.12,3-8.89-2.5s-2.11-50,5.39-84S812.61,532,812.61,532Z" transform="translate(-623.6 -137.08)"/><path class="cls-16" d="M768.5,567s18.5-18,33.25-12.5,34.08,31,37.92,38.5l3.83,7.5s11.56-1.5,14,4,4.22,14.31,4.22,14.31S859.4,622.39,882,626s32.48,1.57,32.48,1.57,3.8,5,2.3,13.55-8.28,17.38-8.28,17.38l-53,1.5S835,672.5,827,673.5a47.61,47.61,0,0,0-14.54,4.44S766,671,764,639.5,768.5,567,768.5,567Z" transform="translate(-623.6 -137.08)"/><ellipse class="cls-6" cx="912.2" cy="643.2" rx="15.8" ry="4.3" transform="translate(-479.63 1315.84) rotate(-81.69)"/><path class="cls-9" d="M986,503.85s-3.33-2.18,0,7.48,12.81,14.34,12.81,14.34l10.86-24s20-7,26-9.67,11.33-8.67,12.33-11,0-5.5,0-5.5,4.67-3.63,4.67-7.06-2-4.24-2-4.24,4.33-4.84,4.66-6.85-.66-4.35-5.33-2.85l-4.67,1.5s2.34-5.33-1-5-10,7.83-16.66,10.75-10.34,4.25-10.34,4.25,4.42-3.75,5.42-7-.25-8-.25-8l-9.75,8s-8,4-11.25,10.5-5.25,14-4.75,16.25l.5,2.25Z" transform="translate(-623.6 -137.08)"/><path class="cls-12" d="M1014.33,468.44l-2.33,3.89s2,2.84,1.17,5.67-2.67,7.33-2.67,7.33" transform="translate(-623.6 -137.08)"/><path class="cls-12" d="M1027,469.33s10.17-4.44,10.83-5.13,7.5-8.2,7.5-8.2" transform="translate(-623.6 -137.08)"/><path class="cls-12" d="M1029.83,475.67s8.5-3.34,13.5-8.17,6.5-3.3,6.5-3.3" transform="translate(-623.6 -137.08)"/><path class="cls-12" d="M1031.83,483a61.23,61.23,0,0,0,8.84-6.12c3.66-3.21,6.33-1.21,6.33-1.21" transform="translate(-623.6 -137.08)"/><path class="cls-12" d="M941.67,534s-5.34-.33-7.67,4.33.67,6.34-5.33,8.34-10.34,3-10.34,3" transform="translate(-623.6 -137.08)"/><path class="cls-12" d="M855.5,620c-3.17-.67-14.83,2.67-17.5,13.67s.33,16.33,4,21S855.5,660,855.5,660" transform="translate(-623.6 -137.08)"/><path class="cls-12" d="M850.67,665.67s-1,1.33,6.66,8,11.31,8.66,11.31,8.66" transform="translate(-623.6 -137.08)"/><path class="cls-12" d="M1008,732.67c5,17.33,4.5,28.33,4,39.33s-11.5,72.7-11.5,93.85,9.5,80.06,9.5,80.06" transform="translate(-623.6 -137.08)"/><path class="cls-12" d="M1032.5,806c1.5,18.5-3,34.86,5,59.85C1050.09,905,1068,915,1068,915" transform="translate(-623.6 -137.08)"/><path class="cls-12" d="M1075,917.5s9.5,1,10.5,8-2,16.46-2,16.46" transform="translate(-623.6 -137.08)"/><circle class="cls-18" cx="223.99" cy="405.39" r="7.22"/><circle class="cls-18" cx="235.02" cy="415.27" r="5.9"/><circle class="cls-19" cx="246.82" cy="404.76" r="5.9"/><circle class="cls-19" cx="249.02" cy="412.61" r="5.9"/><circle class="cls-18" cx="246.82" cy="424.37" r="5.9"/><polygon class="cls-20" points="290.4 465.92 321.06 465.92 377.06 465.92 377.06 480.49 290.4 478.62 290.4 465.92"/><polygon class="cls-20" points="318.85 445.25 347.65 445.25 347.65 465.92 321.06 465.92 318.85 445.25"/><polygon class="cls-20" points="320.4 479.27 323.73 528.58 330.34 532.25 338.4 528.58 342.06 478.62 320.4 479.27"/><path class="cls-9" d="M913.67,631.33s-1.27,1-1.47,4.67,4.93,13.33,4.93,13.33.2-1.66,6.87,0,14.5.34,16.67,0,10-4.83,10-4.83l17.33-.33a4.32,4.32,0,0,0,1.83-3.43,5.34,5.34,0,0,0-1.33-3.57,3.55,3.55,0,0,0,2.81-2.91,8.34,8.34,0,0,0-1.14-5.26,13.79,13.79,0,0,0,2.5-5.17c.5-2.66-3-5-3-5s.5,1.84.5-1.23-4.67-4.41-4.67-4.41l-13.33-3.34Z" transform="translate(-623.6 -137.08)"/><polygon class="cls-17" points="338.4 64.25 327.4 79.58 324.06 445.25 344.9 445.25 349.11 78.92 338.4 64.25"/><line class="cls-12" x1="338.56" y1="69.58" x2="333.73" y2="430.27"/><path class="cls-10" d="M962,745.58s10-.08,16,10.42,10.5,12.41,14,37.46,4.5,58.15,2.5,79.09-1,38,1,49,10.88,38.83,10.88,38.83l-19.9-26.07s-14.5-22-15.25-29.39S955.5,758,955.5,758Z" transform="translate(-623.6 -137.08)"/><path class="cls-12" d="M836.92,529.33" transform="translate(-623.6 -137.08)"/><path class="cls-10" d="M819.67,525.67l20.7,3.66s4.46.34,4.88,2,0,6.67,0,6.67S828,565.14,821,595.54,808.25,644.33,809.62,664L811,683.67H794.33s3.34-74,9.67-92.34,16.33-50,20-52.66S819.67,525.67,819.67,525.67Z" transform="translate(-623.6 -137.08)"/><path class="cls-10" d="M854.82,522s23.85,12.9,31.85,14,40-6.28,43.33-10.28,11.67,2,11.67,2l4.1,3.67-6.07,2.19s-8-.1-11.7,2.52-8.33,15.86-22,17.4-18,3.4-18,3.4.81-4.89-10.59-13.05-24.65-18.13-24.65-18.13Z" transform="translate(-623.6 -137.08)"/><path class="cls-9" d="M806.74,490.28A24.64,24.64,0,0,0,819.88,492a89.15,89.15,0,0,0,14.74-3.89v11.14a11.21,11.21,0,0,1,7.8,7.25,61.48,61.48,0,0,1,2.83,9l-4.88,3.75s-18.37-11.5-25.12-14S791.5,502,791.5,502s7-6.88,8.55-7.93S806.74,490.28,806.74,490.28Z" transform="translate(-623.6 -137.08)"/><line class="cls-12" x1="204.15" y1="366.6" x2="191.65" y2="368.17"/><path class="cls-10" d="M847.6,519.25l7.9-3.75s1.89-4.75-.68-8.75a35.64,35.64,0,0,0-5.32-6.5s-2.92,2.5-7.08,0-5.5-2.75-5.5-2.75h-2.3s4.86,3.36,6.33,6.18S847.6,519.25,847.6,519.25Z" transform="translate(-623.6 -137.08)"/><path class="cls-10" d="M840.37,522l-8.3,1.75s-10.07-3-13.69-4.5-6.63-5.75-12.38-6.75-26.59-.9-26.59-.9a82.44,82.44,0,0,0,7.82-5.68c2.64-2.34,4.27-3.92,4.27-3.92s17.92.45,20.83,1.85,28,15.4,28,15.4Z" transform="translate(-623.6 -137.08)"/><path class="cls-21" d="M832.07,534s6.6-5.76,4.85-8.32-7.35-2.68-7.35-2.68-7.47-1.4-11.19-3.74-4.87-5.56-10.8-6.37-28.17-1.28-28.17-1.28,2-.53-11.71,5.81S748,530.17,748,535.25s2,4.35,0,8.55-3,8.39-2.67,11.79a67.24,67.24,0,0,0,2.34,9.74,111.15,111.15,0,0,1-4.34,13c-2,4.34,0,9.67,0,9.67s1.34,10.33,2,13.33S738,619.92,738,619.92s-1.33,1.84,0,7.46,5.67,20.29,5.67,20.29a66.8,66.8,0,0,0-1.34,9.66c-.33,5.34,1.34,8.67,4.67,12s3.67,10,4.67,13,42.66,1.34,42.66,1.34,4.32-71.2,7.42-83,19.92-51,24.58-58.19S832.07,534,832.07,534Z" transform="translate(-623.6 -137.08)"/><path class="cls-21" d="M858.62,523.75l-5.89-6.93s3.37-.32,2.95-6.57S851.2,502,851.2,502l6.33,1.68s10.72-2.18,15.09,1.57,5.88,4.75,6.88,7.63,5.25.62,8.25,3.12,6.5,6,6.5,6,11.15-4,18-2.75,14.3,6.42,14.3,6.42v2.09A86.19,86.19,0,0,1,907,533.39,179.66,179.66,0,0,1,886.67,536a100.43,100.43,0,0,1-16.25-6.1C862.35,525.92,858.62,523.75,858.62,523.75Z" transform="translate(-623.6 -137.08)"/><path class="cls-21" d="M934.33,826.33c7,14,7,22.67,7,42.34s-17.66,30.66-17.66,30.66-6.67,5.34-9,9.34,2,8.83,2,8.83l29,37.17s12,0,18.33,2.94,6.33,4.72,6.33,4.72L974,962l13,12.67-.67,22.66H1063s5.33-6,3-13.66-7-9.67-7-9.67a40.86,40.86,0,0,1,5.33-3.33c3.67-2,.34-5,0-6.55s-3.66-5.45-7-2.82-15.64,3.37-27,0-37.35-27-37.35-27-13-19.93-15-24.93S978,896,981,890s9.72-13.67,9.72-13.67,1.66-7.33-4-12.66A21.79,21.79,0,0,0,974,858s3.67-45.67,4.67-57.33-2-24.34-6.67-34.67a23.43,23.43,0,0,0-14-12.8s-4,8.13-7.68,15.8-16.66,13.33-16.66,13.33,7.08-.08,7.33,6.42,2.5,10.5-3.25,13.5-10,1.25-10,1.25-1.75-3-.5,4.75S934.33,826.33,934.33,826.33Z" transform="translate(-623.6 -137.08)"/><path class="cls-22" d="M842.42,517.68s3.33-7.3,7.08-7.18,6,7,4.5,8.75-2.26,2.75-2.26,2.75,6-2.5,7.87,0,1,4-1,5-5.89,2.33-5.89,2.33-3.24,9.42-6.49,5.92a6.56,6.56,0,0,1-1-7.5s-13.18,8.87-13.18-2.08S842.42,517.68,842.42,517.68Z" transform="translate(-623.6 -137.08)"/><line class="cls-12" x1="331.9" y1="480.49" x2="345.23" y2="481.73"/><line class="cls-12" x1="331.9" y1="489.08" x2="347.65" y2="490.3"/><line class="cls-12" x1="331.9" y1="497.42" x2="344.9" y2="500.08"/><path class="cls-23" d="M809.89,435.67s2.44-.84,2.44,5.58-4,7-4,7,3,3.78,0,9.1a81.74,81.74,0,0,1-8,11.09s2.84-.34,1.42,8.44-14.52,29-14.52,29" transform="translate(-623.6 -137.08)"/><path class="cls-17" d="M826.33,542.47s.67-8.3-4.83-7.22-6.66,3.56-6.66,3.56,3.49-8.14-6.51-9.48S798,537.67,798,537.67s-11,.72-9.33,12,1.33,5.89,1.33,5.89-8.21,6.41-2.77,15.08,12.55,3.66,12.55,3.66S795.33,580,798.33,585s7.53,3.59,7.53,3.59,8.51-21.32,12.14-29.2S826.33,542.47,826.33,542.47Z" transform="translate(-623.6 -137.08)"/><path class="cls-17" d="M774,514.5s-3.67,4.5,0,7.5,13.23,0,13.23,0-.56,4.5,8.44,1.75,10.19-6.08,10.19-6.08l1.72-4.79-28.17-1.28Z" transform="translate(-623.6 -137.08)"/><path class="cls-17" d="M748.75,541.85s2.25-9.46,7.92-5.82,4.66,6.44,4.66,6.44,10.34-4.1,9.67,9.88-11.11,8-11.11,8S766,570,757.33,574,745,574,745,574l2.65-8.67s-1-2.14-2.34-9.74S748.75,541.85,748.75,541.85Z" transform="translate(-623.6 -137.08)"/><path class="cls-17" d="M743.67,647.67s.33-12.84,10.33-10.5,7,8.5,7,8.5,11-5.34,14.33,6-3,16-3,16,4.63-.34,5.3,6.33-3.34,9.67-3.34,9.67l-22.66-1.34a16.38,16.38,0,0,0-3.23-11.06c-3.94-4.94-6.91-7-6.11-13.94S743.67,647.67,743.67,647.67Z" transform="translate(-623.6 -137.08)"/><path class="cls-17" d="M763.62,601.67c-1.29-8.34,7.41-9,7.41-9s6.12-.34,6.71,9c0,0,6.66-3.34,7.63,3S787,615.15,782,617.58c0,0,5,2.42-1.5,8.59s-16.17-2.84-16.17-2.84-13,4.74-13.66-7.63S763.62,601.67,763.62,601.67Z" transform="translate(-623.6 -137.08)"/><path class="cls-17" d="M796.88,643.2s-6.26-4.79-9.57,0S790,653,790,653s-6.35,4.33-2.66,10.33,8.08,4,8.08,4Z" transform="translate(-623.6 -137.08)"/><path class="cls-17" d="M864.52,503.85s-6,.9-2.77,6.65,12,4.5,12,4.5-2.36,6.78,2.57,8.26,15.08-4,15.08-4,1.09-1.84-3.65-3.25a59.82,59.82,0,0,1-8.25-3.12s1.56-.56-3.18-4.45S864.52,503.85,864.52,503.85Z" transform="translate(-623.6 -137.08)"/><path class="cls-17" d="M905.68,519.25s-5.25,1.5-4.34,4.5,3.16,6.17,8.66,5.58,8.33-7.33,8.33-7.33-.67-2.64-6.13-2.75S905.68,519.25,905.68,519.25Z" transform="translate(-623.6 -137.08)"/><path class="cls-17" d="M968.08,759.9S947.5,763,950,780.75,969.75,800,969.75,800s-5.5,1.75-4.75,6,1.75,5,6.25,4.75,7.09-6.2,7.09-6.2.6-16.77-1.29-23.56S968.08,759.9,968.08,759.9Z" transform="translate(-623.6 -137.08)"/><path class="cls-17" d="M932,821.85s8-10.35,15.47-5.35S951,828,951,828s5-3.75,9.25,4,0,11.5,0,11.5,10.53,11.75,1.89,22.5-15.89,4.5-15.89,4.5,2.67,2.48-1.75,4.77-4.25,1.69-4.25,1.69,1.22-12.48,1-18.46-2.84-23.31-4.89-27.74S932,821.85,932,821.85Z" transform="translate(-623.6 -137.08)"/><path class="cls-17" d="M981,890s-14.28-17.33-22-6.33,0,17.66,0,17.66,4.54,3.34,9.27,3c0,0-5.6,0-6.94,6.34s.21,13.66,6.94,11.66,9.73-13,9.73-13-.58-9.66.43-12.74S981,890,981,890Z" transform="translate(-623.6 -137.08)"/><path class="cls-17" d="M930,917.5c1.33-5.83,9.33-11.83,13-5.17s-3,10.34-3,10.34,5.43,12.87-3,11.54S930,917.5,930,917.5Z" transform="translate(-623.6 -137.08)"/><path class="cls-17" d="M1057.31,974.33s-20-17.08-32-10.21S1014,973,1014,973s-9.67-6.67-13.5,1.33,8.17,9.67,8.17,9.67-2,7.67,10.33,8.67,17-6.34,17-6.34-.33,5,9,5a17.7,17.7,0,0,0,14-6.66s8.35.93,6.43-2.76S1057.31,974.33,1057.31,974.33Z" transform="translate(-623.6 -137.08)"/><path class="cls-17" d="M976,953.67c3.67-5.34,14.33-7.67,16.33-2s2,11.32-4,10.82S976,953.67,976,953.67Z" transform="translate(-623.6 -137.08)"/><path class="cls-23" d="M1000.67,530.85s2.33,8.09,1.33,11-3,1.64-2.25,5.89l.75,4.26" transform="translate(-623.6 -137.08)"/><path class="cls-6" d="M1000.67,556.85l4.58-1.26,9.08,14.66s-.58,4.56-6.83,5.53a12.52,12.52,0,0,1-10.25-3Z" transform="translate(-623.6 -137.08)"/><path class="cls-6" d="M901.34,671.75l2.91,4.5-5,11s-8.08-.58-8.92-4.92,0-6.08,0-6.08Z" transform="translate(-623.6 -137.08)"/><path class="cls-23" d="M909.92,658.83c1,4-3.17,8.83-3.17,8.83l-4.13,4.09" transform="translate(-623.6 -137.08)"/><circle class="cls-6" cx="378.65" cy="416.37" r="3.87"/><circle class="cls-6" cx="281.48" cy="534.71" r="3.46"/><rect class="cls-24" x="83.4" y="833.29" width="279.33" height="26.96"/><path class="cls-17" d="M755.76,514.85C756.71,510.5,757,508,745,502l-50.69,3.25S673.88,512.7,667.67,522s-4.94,26.37,2.66,27.58,24,5.91,24,5.91a7.24,7.24,0,0,1,6.67,6c1.33,5.88-.18,66.54-1.4,97.38-1.27,32.17,15.09,102.5,27.07,121.5,12.73,20.2,22.28,29,24,37.67s3.69,13,1,23.33-7,18.73-4.34,35.7,18.34,26,18.34,26-4.34,2.81-3.67,6.4,5.33,5.6,5.33,5.6-5.66,18.67-13.33,29-13.67,16.67-26.33,16.33-15.67,10-15.67,10H965.54s6.63,0,5.71-4-5.71-8.72-5.71-8.72-14.23-4.23-18.55-2.92c0,0-33.07-41.19-33-42.69s5.18-9.15,9.69-12.67,22-12.66,17.66-43S931.1,822,929.17,815.14a34.33,34.33,0,0,1-1.42-11.64s15.39,3.41,13.64-10.47S932,783,932,783s22-1.83,30-37.42S971.25,713,971.25,713s7.08,3.67,12.42-7.33-12.42-15.34-12.42-15.34l9.7-12.39-229.28,4.39c.82,0-.15-4.13-1-7.14-1.06-3.66-5.38-9.24-8.27-14.92,2.65-18.57-.54-14.31-5-36.93,7.91-22,8.91-17,5-41C750.64,554,745,566.67,745,553.45c.38-5.55,4.61-16.13,3.13-19.62C753,526.53,754.43,520.86,755.76,514.85Z" transform="translate(-623.6 -137.08)"/><circle class="cls-20" cx="330.34" cy="540.86" r="8.17"/><path class="cls-25" d="M694.33,505.25c9.34.75,18.67,5.66,24,12.87s14,21.86,14,40.87-1.33,61,0,71,2.82,41.68,5.08,49.51,9.76,11.17,12.34,11.83,221.5-4.08,221.5-4.08-.37,10.08-3,14.08-16.36,24-18.48,34.67-9.91,29.69-17.76,38.45c-8.06,9-16.13,12.24-22.25,17.9s-8.55,22.79-8.55,22.79l-104.18,5s-4.57-17.45-19.31-26.47-30.18-20.21-38.07-33.79c-11-19-19.34-48.23-20.67-101.07s1.33-72,0-93.07-10.38-67.92-44.75-45c-9,6-5.67,19,.25,24.25,4,3.55,10.5,4.7,13.75-1.2,4.94-9-1.25-4.38-1.25-4.38s-5,5.58-10,0c-4.44-4.95,1.5-11.46,7.5-12.67s11-.53,13.75,7.24c3.5,9.81.75,18.32-3.92,21.5s-19.69,5.9-27.58-5.79-5-18.55-3-26.44C667.5,508.38,685,504.5,694.33,505.25Z" transform="translate(-623.6 -137.08)"/><path class="cls-25" d="M796.88,822.5l104.46-4s22.16,17,18.16,39.5-29.17,28-29.17,28S864,886,865,873s0-13.58,16.5-20c0,0-13.67-13.46-34.83,3-8.84,6.88-7.45,13.68-2.84,19.27,6.44,7.8,19.17,13.23,19.17,13.23s-7.5,6.18.5,12.84S881,905,881,905s-5,3.5-4,6.5,11.17,1.5,13.33,6,2.67,3,4.67,14.5,29.5,38.37,29.5,38.37H768.34S766.5,959,771.5,950.5A17.25,17.25,0,0,1,785.37,942s-3.55-7.46.79-14.46S801.5,915,801.5,915s9.67-3.69,10.83-5.6-3.33-4.9-3.33-4.9,14.38,5.5,15.19-7.5-4.31-10.5-4.31-10.5,25,0,25.56-21S807.5,843,800.5,857c0,0,32.93-.62,23.69,11C785.25,917,743.25,851.25,796.88,822.5Z" transform="translate(-623.6 -137.08)"/><path class="cls-26" d="M744.67,701.33l205.12-5.66s-9.95,41.06-19.87,57.53S890,793,890,793l-85.29,1.67S777.74,779,760,762C753.38,752.27,749.33,751,744.67,701.33Z" transform="translate(-623.6 -137.08)"/><path class="cls-25" d="M752.15,839.29S765.69,832,768,825.67s4.66-8,1.66-19.67c0,0-17.17,6.25-19-8-3.89-30.24,42.33-19.5,46.38,4.5,2,11.85,0,17.66,0,17.66s-16-1.25-31.38,19.13c0,0-11.84,4.68-15.09,21.21s-3.5,14.77-3.5,14.77-1.91-9.94,2.14-25.44C751.45,841.27,752.15,839.29,752.15,839.29Z" transform="translate(-623.6 -137.08)"/><path class="cls-25" d="M934,824.75c-2.53-6.25-6.75-8-6.25-21.25,0,0,13.29,6.76,15.13-7.49,3.89-30.24-42.34-19.5-46.39,4.5-2,11.86-.57,14.88-.57,14.88s29.21-3.08,39.33,16.36c8.85,17,5,45.21,5,45.21S946.25,855,934,824.75Z" transform="translate(-623.6 -137.08)"/><path class="cls-26" d="M761.5,797s1.25-8.75,8.75-4.5-.58,13.5-.58,13.5" transform="translate(-623.6 -137.08)"/><path class="cls-26" d="M774.5,818.5s9.57-11.66,7.25-23.83S771,779.93,771,779.93" transform="translate(-623.6 -137.08)"/><path class="cls-26" d="M785.5,818.5s5.11-16.32,3.75-22.25c-3.1-13.47-12.69-14.88-12.69-14.88" transform="translate(-623.6 -137.08)"/><path class="cls-26" d="M914,780.57s-3.31-.21-3.31,4.78,1.65,4.85,1.65,4.85" transform="translate(-623.6 -137.08)"/><path class="cls-26" d="M903.75,787.43s-2.41,3-2.41,6c0,5.76,2.41,6.47,2.41,6.47" transform="translate(-623.6 -137.08)"/><path class="cls-26" d="M934.25,793.68S931.5,782.91,924,790.2s2.5,12,2.5,12" transform="translate(-623.6 -137.08)"/><path class="cls-12" d="M951,960.33s5.67-.34,9.33,2.16,5.21,7.88,5.21,7.88" transform="translate(-623.6 -137.08)"/><path class="cls-12" d="M731,963.14a11.23,11.23,0,0,0-8,1,17,17,0,0,0-5.67,6.25" transform="translate(-623.6 -137.08)"/><path class="cls-27" d="M769.5,965.35s7.24-2.12,11-5c3.5-2.71,6.46-9.07,10-10.32,3.37-1.19,4.5.75,6.25,2.5l1.75,1.75s-2.75,1.22-3.5,3.36,0,8.14-5,10.89S777.25,973.69,769.5,965.35Z" transform="translate(-623.6 -137.08)"/><circle class="cls-12" cx="169" cy="817.02" r="1.35"/><path class="cls-27" d="M915.84,962.6s-7.24-2.12-11-5c-3.5-2.71-6.46-9.07-10-10.32-3.37-1.19-4.5.75-6.25,2.5l-1.75,1.75s2.75,1.22,3.5,3.36,0,8.14,5,10.89S908.09,970.94,915.84,962.6Z" transform="translate(-623.6 -137.08)"/><circle class="cls-12" cx="269.13" cy="814.27" r="1.35"/><path class="cls-26" d="M834.75,926.5s.58-6.65,6.5-7.75c6.75-1.25,7.5,7.25,7.5,7.25s22.75-20.75,31.25-6.25S881,950,870.25,950c0,0,12.5,4.36,9.25,12.8s-14.75,11.38-23.75,3.79-12-11.13-12-11.13-5.75,10.72-17.5,12.88-18.75,1.13-20-8,9.25-9,9.25-9-17.56,6.26-20.25-13.84c-2.65-19.83,11-19.76,13.25-20S830.75,920.25,834.75,926.5Z" transform="translate(-623.6 -137.08)"/><circle class="cls-26" cx="184.15" cy="790.92" r="4.95"/><circle class="cls-26" cx="248.57" cy="787.17" r="5.3"/><circle class="cls-26" cx="194.49" cy="823.12" r="3.67"/><circle class="cls-26" cx="243.24" cy="822.43" r="4.21"/><circle class="cls-26" cx="217.83" cy="794.86" r="5.57"/><circle class="cls-26" cx="218.62" cy="806.85" r="2.79"/><path class="cls-26" d="M834.75,910.75s-2,7,2.83,9.82" transform="translate(-623.6 -137.08)"/><path class="cls-26" d="M845,910.75s3.09,2.39-.59,8.2" transform="translate(-623.6 -137.08)"/><path class="cls-25" d="M819,815.37s.53-4.59,3.65-5.2c3.56-.68,3.65,5.22,3.65,5.22s12.57-13.76,16.49-3.51-.54,21-6.14,20.67c0,0,6.36,3.35,4.37,9.1s-8.07,7.48-12.49,2a71.62,71.62,0,0,1-5.86-8s-3.37,7.27-9.56,8.45-9.8.29-10.13-6,5.13-6,5.13-6-9.36,3.87-10.06-10.11c-.69-13.78,6.42-13.38,7.6-13.49S817.13,810.94,819,815.37Z" transform="translate(-623.6 -137.08)"/><ellipse class="cls-25" cx="804.89" cy="815.69" rx="3.43" ry="2.58" transform="translate(-673.95 1441.36) rotate(-87.11)"/><ellipse class="cls-25" cx="838.55" cy="814.79" rx="3.67" ry="2.76" transform="translate(-641.08 1474.12) rotate(-87.11)"/><ellipse class="cls-25" cx="809.15" cy="838.24" rx="2.54" ry="1.91" transform="translate(-692.42 1467.03) rotate(-87.11)"/><ellipse class="cls-25" cx="834.55" cy="839.05" rx="2.92" ry="2.2" transform="translate(-669.1 1493.16) rotate(-87.11)"/><path class="cls-25" d="M876,815.08s-.54-4.59-3.66-5.19c-3.55-.69-3.65,5.21-3.65,5.21s-12.56-13.76-16.48-3.5.53,20.95,6.13,20.67c0,0-6.36,3.34-4.37,9.1s8.08,7.48,12.5,2a70.29,70.29,0,0,0,5.85-8s3.37,7.27,9.56,8.46,9.8.29,10.13-6-5.12-6-5.12-6,9.35,3.87,10.05-10.11c.69-13.78-6.41-13.37-7.59-13.49S877.87,810.65,876,815.08Z" transform="translate(-623.6 -137.08)"/><ellipse class="cls-25" cx="890.11" cy="815.41" rx="2.58" ry="3.43" transform="translate(-663.58 -91.17) rotate(-2.89)"/><ellipse class="cls-25" cx="856.45" cy="814.5" rx="2.76" ry="3.67" transform="translate(-663.58 -92.87) rotate(-2.89)"/><ellipse class="cls-25" cx="885.85" cy="837.96" rx="1.91" ry="2.54" transform="translate(-664.72 -91.36) rotate(-2.89)"/><ellipse class="cls-25" cx="860.45" cy="838.76" rx="2.2" ry="2.92" transform="translate(-664.79 -92.64) rotate(-2.89)"/><circle class="cls-26" cx="228.13" cy="614.23" r="32.07"/><circle class="cls-28" cx="213.32" cy="612.95" r="2.37"/><circle class="cls-28" cx="238.94" cy="611.98" r="2.37"/><path class="cls-29" d="M850.73,753.2l.52,8.8" transform="translate(-623.6 -137.08)"/><path class="cls-25" d="M819.66,767.5c10.67,6.92,9.84,15.89,9.84,15.89s1.84-8.08,7.42-5.86a83.25,83.25,0,0,1,8.52,3.84l5.18,4s5.64-6.54,9-7.82,8.79,0,8.79,0,4.16-6.26,9.71-8c10.37-3.27,15.12,3.51,15.87,10s3.11,14.16-4,20.41c-6.6,5.78-14.46,2.82-18.46-3.68,0,0-.91,6.27-9,5.26s-10.82-4.26-10.82-4.26-7.4,4.74-12.44,4.37-7.79,1.38-12.54-5.37c0,0-3.08,7.5-14.42,6s-11.78-21.47-3.18-22.73c0,0-3.65-5-1.4-9A8.69,8.69,0,0,1,819.66,767.5Z" transform="translate(-623.6 -137.08)"/><path class="cls-25" d="M815.25,734.75s1-14,7.75-19.75,18.5-5.5,18.5-5.5,4-6.5,10.23-6.25A26.82,26.82,0,0,1,862.55,706s10-.25,15,7,7.21,12.5,8.35,18.75,8.4,4.83,5.9,15.92-3.29,14.58-5.9,16.33-6.69,3.94-6.69,3.94-3.66-8.44-2.41-12.69,1.5-5.21,1.5-5.21-3.5-1-5.5-8.29,0-7.5,0-7.5-5.75-.25-6-3.75a7,7,0,0,1-8.25,5.09,13.13,13.13,0,0,1-9.41-6.84,11.5,11.5,0,0,1-8.72,6.84C833.5,737,830,732.67,830,732.67a23.14,23.14,0,0,1-3,7.08c-2,2.75-.62,4.82-2.81,10.29,0,0,1.31,1.16,2.31,7.56s-.75,8.65-.75,8.65-9-.94-10.5-6.35,0-4.65,0-4.65-6-1.33-6.1-9.67S815.25,734.75,815.25,734.75Z" transform="translate(-623.6 -137.08)"/><path class="cls-26" d="M885.85,726.25s12.83-2.5,15.49-9.5.37-13.75,9.33-17S934.26,695,944,703.24" transform="translate(-623.6 -137.08)"/><path class="cls-26" d="M901.34,755.75s3.16,7.89-1.34,12.19c0,0,1.25,6.87-1.75,9.59s-4.25,2-4.25,2" transform="translate(-623.6 -137.08)"/><path class="cls-26" d="M906.34,754.25s7.49,8.14,2.2,13.69-4.85,6.61-8.32,4.34" transform="translate(-623.6 -137.08)"/><path class="cls-26" d="M916,753.2s6,8.3,1.13,13-8.59,3-8.59,3" transform="translate(-623.6 -137.08)"/><path class="cls-26" d="M922.5,750s6.25,5.22,4.43,7.56" transform="translate(-623.6 -137.08)"/><path class="cls-26" d="M923.75,723.5s10.25,7.19,9.5,12.09a15.51,15.51,0,0,1-4.73,8.35" transform="translate(-623.6 -137.08)"/><path class="cls-26" d="M927.26,719.24a15.8,15.8,0,0,1,10.24,4.26c2.45,2.48,2.1,7.12,2.1,7.12" transform="translate(-623.6 -137.08)"/><path class="cls-26" d="M928.52,711.7s12.76,4.58,13.51,9.47a78,78,0,0,0,0-8.42c-.25-5.5-19.5-9.51-19.5-9.51" transform="translate(-623.6 -137.08)"/><path class="cls-26" d="M917.13,730s5.13,2.37,7.75,6.19,3.75,10,2.85,11.48a18.84,18.84,0,0,1-3.84,3.64" transform="translate(-623.6 -137.08)"/><path class="cls-26" d="M909.33,709.5s5.25-4.17,9.71-2.83,9,5,7.29,10.16-7.4,5.67-9.2,4.84" transform="translate(-623.6 -137.08)"/><path class="cls-26" d="M909.33,714.2s4.84-3.31,6.67,0-.38,7.61-2,7.79c0,0,3.85,4.84,2,8a6.92,6.92,0,0,1-8.83,2.67" transform="translate(-623.6 -137.08)"/><path class="cls-26" d="M914.17,733.17s5.55,4,2.52,7.49a7.06,7.06,0,0,1-7.36,2s8.86,5.89,5.6,10.53-7.76-.79-7.76-.79" transform="translate(-623.6 -137.08)"/><path class="cls-26" d="M905.08,746.5s5.24,6.31.25,8.57-8.22-2.66-8.22-2.66" transform="translate(-623.6 -137.08)"/><path class="cls-26" d="M892.27,752.41S896.5,762,894,766.25s-5.83-2.43-5.83-2.43" transform="translate(-623.6 -137.08)"/><path class="cls-26" d="M812.1,730.53s-14.87-2.5-18-9.5-.43-13.75-10.81-17-27.37-4.76-38.66,3.49" transform="translate(-623.6 -137.08)"/><path class="cls-26" d="M794.14,760s-3.66,7.89,1.55,12.19c0,0-1.44,6.87,2,9.59s4.93,2,4.93,2" transform="translate(-623.6 -137.08)"/><path class="cls-26" d="M788.34,758.53s-8.68,8.14-2.55,13.69,5.63,6.61,9.65,4.33" transform="translate(-623.6 -137.08)"/><path class="cls-26" d="M777.14,757.48s-7,8.3-1.31,13,10,3,10,3" transform="translate(-623.6 -137.08)"/><path class="cls-26" d="M769.6,754.32s-7.24,5.22-5.13,7.56" transform="translate(-623.6 -137.08)"/><path class="cls-26" d="M768.16,727.78s-11.89,7.19-11,12.09,5.48,8.35,5.48,8.35" transform="translate(-623.6 -137.08)"/><path class="cls-26" d="M764.08,723.52s-7,0-11.87,4.26c-2.84,2.48-2.43,7.12-2.43,7.12" transform="translate(-623.6 -137.08)"/><path class="cls-26" d="M762.62,716s-14.79,4.57-15.66,9.47a66.5,66.5,0,0,1,0-8.42c.29-5.5,22.61-9.51,22.61-9.51" transform="translate(-623.6 -137.08)"/><path class="cls-26" d="M775.83,734.28s-6,2.37-9,6.19-4.34,10-3.3,11.48,4.46,3.64,4.46,3.64" transform="translate(-623.6 -137.08)"/><path class="cls-26" d="M784.87,713.78s-6.09-4.17-11.26-2.83-10.38,5-8.45,10.16,8.58,5.67,10.67,4.84" transform="translate(-623.6 -137.08)"/><path class="cls-26" d="M784.87,718.48s-5.6-3.31-7.73,0,.44,7.61,2.35,7.79c0,0-4.47,4.84-2.35,8s6.57,4,10.24,2.67" transform="translate(-623.6 -137.08)"/><path class="cls-26" d="M779.27,737.45s-6.44,4-2.93,7.49,8.53,2,8.53,2-10.27,5.89-6.49,10.53,9-.79,9-.79" transform="translate(-623.6 -137.08)"/><path class="cls-26" d="M789.8,750.78s-6.07,6.31-.28,8.57,9.53-2.66,9.53-2.66" transform="translate(-623.6 -137.08)"/><path class="cls-26" d="M804.66,756.69s-4.91,9.59-2,13.84,6.77-2.43,6.77-2.43" transform="translate(-623.6 -137.08)"/><path class="cls-12" d="M752.86,834.67s-3.86,11.16-5.19,20-1.63,17.1-.34,22.36" transform="translate(-623.6 -137.08)"/><path class="cls-12" d="M937.82,780.57s5.18,3.67,5.85,9.63-.82,12.26-4.66,13.57-9.15,1.46-11.26-.27c0,0,0,8.51,1.81,12.84s8.59,13.88,10.76,30.35a129,129,0,0,1,0,31.63" transform="translate(-623.6 -137.08)"/><line class="cls-12" x1="144.74" y1="833.29" x2="300.9" y2="833.29"/><path class="cls-12" d="M700.17,504.47s-33.59-3.14-37,21.2,5.94,27.91,12.55,31.18c4.33,2.14,15.5,2.12,18.66-1.36" transform="translate(-623.6 -137.08)"/><rect class="cls-12" x="33.84" y="35.03" width="485.17" height="825.22"/></g><text class="cls-30" transform="translate(36.41 907.9)">QUEEN o<tspan class="cls-31" x="224.69" y="0">f</tspan><tspan class="cls-32" x="247.68" y="0" xml:space="preserve"> S</tspan><tspan class="cls-33" x="294.92" y="0">W</tspan><tspan class="cls-34" x="341.16" y="0">ORDS</tspan></text></svg>