<svg id="教皇" xmlns="http://www.w3.org/2000/svg" viewBox="0 0 555.47 960.99"><defs><style>.cls-1,.cls-18{fill:#fff;}.cls-1,.cls-11,.cls-12,.cls-13,.cls-14,.cls-15,.cls-16,.cls-17,.cls-18,.cls-19,.cls-2,.cls-20,.cls-21,.cls-22,.cls-24,.cls-25,.cls-26,.cls-27,.cls-3,.cls-31,.cls-32,.cls-33,.cls-36,.cls-37,.cls-38,.cls-4,.cls-41,.cls-5,.cls-6,.cls-9{stroke:#231815;}.cls-1,.cls-10,.cls-11,.cls-12,.cls-13,.cls-14,.cls-15,.cls-16,.cls-17,.cls-18,.cls-19,.cls-2,.cls-24,.cls-25,.cls-27,.cls-28,.cls-29,.cls-3,.cls-30,.cls-31,.cls-32,.cls-33,.cls-36,.cls-37,.cls-38,.cls-4,.cls-5,.cls-6,.cls-7,.cls-8,.cls-9{stroke-linecap:round;}.cls-1,.cls-10,.cls-11,.cls-12,.cls-13,.cls-14,.cls-15,.cls-16,.cls-17,.cls-2,.cls-29,.cls-3,.cls-30,.cls-31,.cls-32,.cls-33,.cls-36,.cls-37,.cls-38,.cls-4,.cls-5,.cls-6,.cls-7,.cls-8,.cls-9{stroke-linejoin:round;}.cls-1,.cls-10,.cls-11,.cls-12,.cls-13,.cls-14,.cls-15,.cls-16,.cls-17,.cls-18,.cls-19,.cls-20,.cls-21,.cls-22,.cls-24,.cls-25,.cls-26,.cls-27,.cls-28,.cls-29,.cls-3,.cls-30,.cls-31,.cls-32,.cls-33,.cls-34,.cls-36,.cls-37,.cls-38,.cls-4,.cls-41,.cls-5,.cls-6,.cls-7,.cls-8,.cls-9{stroke-width:2px;}.cls-10,.cls-16,.cls-2,.cls-24,.cls-26,.cls-30,.cls-7{fill:none;}.cls-2{stroke-width:6px;}.cls-3{fill:#d9e7d7;}.cls-4{fill:#cbe6c3;}.cls-5{fill:#d7f3f0;}.cls-6{fill:#00a5c4;}.cls-7{stroke:#a9cecc;}.cls-8{fill:#c4e3da;}.cls-10,.cls-8{stroke:#00ada6;}.cls-9{fill:#b8dedd;}.cls-11{fill:#e83828;}.cls-12,.cls-22,.cls-40{fill:#231815;}.cls-13,.cls-31{fill:#fec0ad;}.cls-13{opacity:0.46;}.cls-14,.cls-28{fill:#ffd21a;}.cls-15{fill:#f4e73f;}.cls-17{fill:#ff574a;}.cls-18,.cls-19,.cls-20,.cls-21,.cls-22,.cls-24,.cls-25,.cls-26,.cls-27,.cls-28,.cls-34,.cls-41{stroke-miterlimit:10;}.cls-19{fill:#bdd3d0;}.cls-20{fill:#2ea7e0;}.cls-21{fill:#f9c2b6;}.cls-23{fill:#ffadaf;}.cls-25,.cls-39{fill:#f7f8f8;}.cls-27{fill:#fff100;}.cls-28,.cls-29{stroke:#f8b62d;}.cls-29,.cls-33,.cls-41{fill:#f6de00;}.cls-30{stroke:#d70051;}.cls-32{fill:#d9e793;}.cls-34{fill:#f0454e;stroke:#ff574a;}.cls-35{fill:#6e8947;}.cls-36{fill:#7f4f21;}.cls-37{fill:#f9d1b9;}.cls-38{fill:#0099d6;}.cls-40{font-size:46px;font-family:ArialRoundedMTBold, Arial Rounded MT Bold;letter-spacing:0.05em;}</style></defs><g id="图层_6" data-name="图层 6"><rect class="cls-1" x="1" y="1" width="553.47" height="958.99" rx="31.02"/><line class="cls-2" x1="255.26" y1="36.26" x2="306.82" y2="36.26"/><line class="cls-2" x1="267.26" y1="36.26" x2="280.4" y2="62.25"/><line class="cls-2" x1="294" y1="36.26" x2="280.4" y2="62.25"/><line class="cls-2" x1="257.7" y1="63.25" x2="302" y2="63.25"/></g><g id="图层_5" data-name="图层 5"><rect class="cls-3" x="34.73" y="221.11" width="98.67" height="521.17"/><rect class="cls-3" x="34.73" y="31.92" width="139.51" height="49"/><path class="cls-3" d="M660.33,243V218H809.42s3.84-.93,4.58,9.67-7,14.66-7,14.66Z" transform="translate(-625.6 -136.08)"/><path class="cls-4" d="M659,345.64l116.24,1.57A304.68,304.68,0,0,0,799,314.62c12-18.95,15-75.29,15-75.29L660.33,243Z" transform="translate(-625.6 -136.08)"/><path class="cls-5" d="M659.67,240.33v53S681.61,325.77,714,325.5c62.45-.53,68.87-71.5,68.87-71.5h27.46s5.51-1.05,3.72-12.55c-.6-3.86-35.91-1.07-72-1.12C701.48,240.28,659.67,240.33,659.67,240.33Z" transform="translate(-625.6 -136.08)"/><path class="cls-6" d="M771,241c0,14.75-12,73.62-53,74.88C661.39,317.62,661.5,241,661.5,241" transform="translate(-625.6 -136.08)"/><line class="cls-7" x1="159.15" y1="127.42" x2="181.9" y2="127.42"/><line class="cls-7" x1="157.9" y1="134.69" x2="179.9" y2="134.69"/><line class="cls-7" x1="156.65" y1="142.37" x2="179.9" y2="142.37"/><line class="cls-7" x1="154.27" y1="148.57" x2="177.4" y2="148.57"/><line class="cls-7" x1="151.33" y1="157.21" x2="177.4" y2="157.58"/><line class="cls-7" x1="148.39" y1="165.21" x2="174.24" y2="165.36"/><line class="cls-7" x1="139.26" y1="174.42" x2="170.52" y2="174.67"/><line class="cls-7" x1="127.4" y1="180.9" x2="165.83" y2="181.92"/><line class="cls-7" x1="114.9" y1="188.17" x2="160.01" y2="189.61"/><line class="cls-7" x1="35.9" y1="196.92" x2="152.4" y2="197.17"/><line class="cls-7" x1="35.9" y1="187.92" x2="55.65" y2="186.99"/><line class="cls-7" x1="45.48" y1="178.54" x2="35.9" y2="178.54"/><line class="cls-7" x1="40.69" y1="37.58" x2="40.69" y2="78.25"/><line class="cls-7" x1="49.19" y1="37.58" x2="49.19" y2="78.25"/><line class="cls-7" x1="57.69" y1="37.58" x2="57.69" y2="78.25"/><line class="cls-7" x1="66.2" y1="37.58" x2="66.2" y2="78.25"/><line class="cls-7" x1="74.7" y1="37.58" x2="74.7" y2="78.25"/><line class="cls-7" x1="83.21" y1="37.58" x2="83.21" y2="78.25"/><line class="cls-7" x1="91.71" y1="37.58" x2="91.71" y2="78.25"/><line class="cls-7" x1="100.21" y1="37.58" x2="100.21" y2="78.25"/><line class="cls-7" x1="108.72" y1="37.58" x2="108.72" y2="78.25"/><line class="cls-7" x1="117.22" y1="37.58" x2="117.22" y2="78.25"/><line class="cls-7" x1="125.73" y1="37.58" x2="125.73" y2="78.25"/><line class="cls-7" x1="134.23" y1="37.58" x2="134.23" y2="78.25"/><line class="cls-7" x1="142.73" y1="37.58" x2="142.73" y2="78.25"/><line class="cls-7" x1="151.24" y1="37.58" x2="151.24" y2="78.25"/><line class="cls-7" x1="159.74" y1="37.58" x2="159.74" y2="78.25"/><line class="cls-7" x1="168.24" y1="37.58" x2="168.24" y2="78.25"/><line class="cls-7" x1="40.69" y1="92.92" x2="40.69" y2="98.42"/><line class="cls-7" x1="49.19" y1="92.92" x2="49.19" y2="98.42"/><line class="cls-7" x1="57.69" y1="92.92" x2="57.69" y2="98.42"/><line class="cls-7" x1="66.2" y1="92.92" x2="66.2" y2="98.42"/><line class="cls-7" x1="74.7" y1="92.92" x2="74.7" y2="98.42"/><line class="cls-7" x1="83.21" y1="92.92" x2="83.21" y2="98.42"/><line class="cls-7" x1="91.71" y1="92.92" x2="91.71" y2="98.42"/><line class="cls-7" x1="100.21" y1="92.92" x2="100.21" y2="98.42"/><line class="cls-7" x1="108.72" y1="92.92" x2="108.72" y2="98.42"/><line class="cls-7" x1="117.22" y1="92.92" x2="117.22" y2="98.42"/><line class="cls-7" x1="125.73" y1="92.92" x2="125.73" y2="98.42"/><line class="cls-7" x1="134.23" y1="92.92" x2="134.23" y2="98.42"/><line class="cls-7" x1="142.73" y1="92.92" x2="142.73" y2="98.42"/><line class="cls-7" x1="151.24" y1="92.92" x2="151.24" y2="98.42"/><line class="cls-7" x1="159.74" y1="92.92" x2="159.74" y2="98.42"/><line class="cls-7" x1="168.24" y1="92.92" x2="168.24" y2="98.42"/><line class="cls-7" x1="176.75" y1="92.92" x2="176.75" y2="98.42"/><path class="cls-3" d="M660.33,345.34c37.67-7.34,98.77-7.81,103,7.49S756.06,374,756.06,374,753,370.17,716,368.58,659,373,659,373Z" transform="translate(-625.6 -136.08)"/><line class="cls-7" x1="99.4" y1="235.42" x2="106.56" y2="704.69"/><line class="cls-7" x1="107.9" y1="235.42" x2="115.07" y2="704.69"/><line class="cls-7" x1="116.4" y1="235.42" x2="123.57" y2="704.69"/><path class="cls-8" d="M679.57,255c-1.75,2.75-1.75,3.25,1.75,3.5,2.36.17,4.71-3.28,4.63-6.24a3.81,3.81,0,0,0-2.13-3.51c-4.5-2.25-5.75-2.54-9-1.64s-6.92,3.28-7,5.46,4.79,11.68,4.79,11.68c-3.08,3.25-5.08,4.88-1.08,4.57l4-.32s2.59,2.25.8,2.5-6.37,7.66-5,9.71,9.5-1.73,9.5-1.73,2.5-.57,2,1.73-3.25,3.34-3.25,6.19-1.5,5.19,3,9,16,7.77,16,7.77-1.25.08-4.25-5.3,0-6.29-3-13.59-5.25-4.8-5.25-12.67,3.5-19.7,8.25-21.17,5.86-3.21,7.56,1-3.06,6.24-5.31,10-4.64,6.81-3.19,11,6.19,7.68,6.19,7.68-3.5,7.14-1.5,10.84,9.5,8.2,9.5,8.2-1.22,10.55,5.64,9.28a10.26,10.26,0,0,0,8.11-7.74s9.42-10.49,8.84-14.39a46.31,46.31,0,0,0-2.77-9s4.86-2.88,4.27-10.88-5.59-10.75-5.59-10.75l2.5-4.25,5,.25s8.75,2.75,7.75,13.5-5.43,15-5.43,15a18.63,18.63,0,0,1,.79,9.29c-.86,5.25-6.52,13.69-6.52,13.69s8.56.9,14.24-5.27,2.77-17.71,2.77-17.71.89-4.93,2.15-4.57,3.36,10.61,7.06,6.86,1.26-10,1.26-10,2.14,3.47,3.91,1.22-1-7.5-1-7.5,9-7.75,5.27-13.5-6.86-8.73-12.94-6.61-7.89,7.86-5.73,10.61,4.4,3,4.4,3,5-.47,3.5-4-.25-3.25-.25-3.25,2.63,1.25,2.82,3.5-8.32,5.5-8.32,5.5a9.73,9.73,0,0,1-4.92-6.5c-.83-4.5-1.94-6.21-5.63-8.39s-14.45-3.15-17.45,0a46.76,46.76,0,0,0-5.5,7.39s9.75,6.5,10.25,11.25,3.62,6.81-1.82,7.28-6.43,2-6.43,2a7.79,7.79,0,0,1,3.5,4c.75,2.52,3,8.62,0,12.57a38.56,38.56,0,0,1-7,6.87,16.16,16.16,0,0,1-9-8.17c-3.25-6.5,1.5-14.11,1.5-14.11s-2.5,1.86-6.5-4,8.75-13.88,8.75-15.63,3.51-8-2.24-11.45-17.76,2.06-17.76,2.06l-3,8.11s-1.16,6-3.28,6.63-6.38,1.33-6.38-1.63S679.57,255,679.57,255Z" transform="translate(-625.6 -136.08)"/><rect class="cls-3" x="1051.76" y="353.88" width="98.67" height="521.17" transform="translate(1576.58 1092.84) rotate(-180)"/><rect class="cls-3" x="1010.92" y="165.68" width="139.51" height="49" transform="translate(1535.74 244.28) rotate(-180)"/><path class="cls-3" d="M1150.42,239.68v-25H1001.34s-3.85-.93-4.58,9.67,7,14.66,7,14.66Z" transform="translate(-625.6 -136.08)"/><path class="cls-4" d="M1151.75,342.32l-116.23,1.57a304.68,304.68,0,0,1-23.76-32.59c-12-18.95-15-75.29-15-75.29l153.71,3.67Z" transform="translate(-625.6 -136.08)"/><path class="cls-5" d="M1151.09,237v53s-21.94,32.44-54.33,32.17c-62.45-.53-68.87-71.5-68.87-71.5h-27.47s-5.5-1.05-3.71-12.55c.6-3.86,35.91-1.07,72-1.12C1109.28,237,1151.09,237,1151.09,237Z" transform="translate(-625.6 -136.08)"/><path class="cls-6" d="M1039.76,237.68c0,14.75,12,73.62,53,74.88,56.6,1.74,56.5-74.88,56.5-74.88" transform="translate(-625.6 -136.08)"/><line class="cls-7" x1="400.4" y1="124.1" x2="377.65" y2="124.1"/><line class="cls-7" x1="401.65" y1="131.38" x2="379.65" y2="131.38"/><line class="cls-7" x1="402.9" y1="139.05" x2="379.65" y2="139.05"/><line class="cls-7" x1="405.28" y1="145.25" x2="382.15" y2="145.25"/><line class="cls-7" x1="408.22" y1="153.89" x2="382.15" y2="154.26"/><line class="cls-7" x1="411.16" y1="161.89" x2="385.31" y2="162.04"/><line class="cls-7" x1="420.29" y1="171.1" x2="389.03" y2="171.35"/><line class="cls-7" x1="432.15" y1="177.58" x2="393.72" y2="178.6"/><line class="cls-7" x1="444.65" y1="184.85" x2="399.54" y2="186.29"/><line class="cls-7" x1="523.65" y1="193.6" x2="407.15" y2="193.85"/><line class="cls-7" x1="523.65" y1="184.6" x2="503.9" y2="183.67"/><line class="cls-7" x1="514.07" y1="175.22" x2="523.65" y2="175.22"/><line class="cls-7" x1="518.86" y1="34.26" x2="518.86" y2="74.93"/><line class="cls-7" x1="510.36" y1="34.26" x2="510.36" y2="74.93"/><line class="cls-7" x1="501.86" y1="34.26" x2="501.86" y2="74.93"/><line class="cls-7" x1="493.35" y1="34.26" x2="493.35" y2="74.93"/><line class="cls-7" x1="484.85" y1="34.26" x2="484.85" y2="74.93"/><line class="cls-7" x1="476.34" y1="34.26" x2="476.34" y2="74.93"/><line class="cls-7" x1="467.84" y1="34.26" x2="467.84" y2="74.93"/><line class="cls-7" x1="459.34" y1="34.26" x2="459.34" y2="74.93"/><line class="cls-7" x1="450.83" y1="34.26" x2="450.83" y2="74.93"/><line class="cls-7" x1="442.33" y1="34.26" x2="442.33" y2="74.93"/><line class="cls-7" x1="433.82" y1="34.26" x2="433.82" y2="74.93"/><line class="cls-7" x1="425.32" y1="34.26" x2="425.32" y2="74.93"/><line class="cls-7" x1="416.82" y1="34.26" x2="416.82" y2="74.93"/><line class="cls-7" x1="408.31" y1="34.26" x2="408.31" y2="74.93"/><line class="cls-7" x1="399.81" y1="34.26" x2="399.81" y2="74.93"/><line class="cls-7" x1="391.3" y1="34.26" x2="391.3" y2="74.93"/><line class="cls-7" x1="518.86" y1="89.6" x2="518.86" y2="95.1"/><line class="cls-7" x1="510.36" y1="89.6" x2="510.36" y2="95.1"/><line class="cls-7" x1="501.86" y1="89.6" x2="501.86" y2="95.1"/><line class="cls-7" x1="493.35" y1="89.6" x2="493.35" y2="95.1"/><line class="cls-7" x1="484.85" y1="89.6" x2="484.85" y2="95.1"/><line class="cls-7" x1="476.34" y1="89.6" x2="476.34" y2="95.1"/><line class="cls-7" x1="467.84" y1="89.6" x2="467.84" y2="95.1"/><line class="cls-7" x1="459.34" y1="89.6" x2="459.34" y2="95.1"/><line class="cls-7" x1="450.83" y1="89.6" x2="450.83" y2="95.1"/><line class="cls-7" x1="442.33" y1="89.6" x2="442.33" y2="95.1"/><line class="cls-7" x1="433.82" y1="89.6" x2="433.82" y2="95.1"/><line class="cls-7" x1="425.32" y1="89.6" x2="425.32" y2="95.1"/><line class="cls-7" x1="416.82" y1="89.6" x2="416.82" y2="95.1"/><line class="cls-7" x1="408.31" y1="89.6" x2="408.31" y2="95.1"/><line class="cls-7" x1="399.81" y1="89.6" x2="399.81" y2="95.1"/><line class="cls-7" x1="391.3" y1="89.6" x2="391.3" y2="95.1"/><line class="cls-7" x1="382.8" y1="89.6" x2="382.8" y2="95.1"/><path class="cls-3" d="M1150.42,342c-37.66-7.34-98.76-7.81-103,7.49s7.28,21.18,7.28,21.18,3.11-3.84,40.08-5.43,57,4.43,57,4.43Z" transform="translate(-625.6 -136.08)"/><line class="cls-7" x1="460.15" y1="232.1" x2="452.99" y2="701.37"/><line class="cls-7" x1="451.65" y1="232.1" x2="444.48" y2="701.37"/><line class="cls-7" x1="443.15" y1="232.1" x2="435.98" y2="701.37"/><path class="cls-8" d="M1131.18,251.72c1.75,2.75,1.75,3.25-1.75,3.5-2.35.17-4.71-3.28-4.63-6.24a3.83,3.83,0,0,1,2.13-3.51c4.5-2.25,5.75-2.54,9-1.64s6.92,3.28,7,5.46S1138.1,261,1138.1,261c3.08,3.25,5.08,4.88,1.08,4.57l-4-.32s-2.58,2.25-.79,2.5,6.37,7.66,5,9.71-9.5-1.73-9.5-1.73-2.5-.57-2,1.73,3.25,3.34,3.25,6.19,1.5,5.19-3,9-16,7.78-16,7.78,1.25.07,4.25-5.31,0-6.29,3-13.59,5.25-4.8,5.25-12.67-3.5-19.7-8.25-21.16-5.86-3.22-7.55,1,3,6.24,5.3,10,4.65,6.81,3.2,11-6.2,7.68-6.2,7.68,3.5,7.14,1.5,10.84-9.5,8.2-9.5,8.2,1.23,10.55-5.63,9.28a10.27,10.27,0,0,1-8.12-7.74s-9.41-10.49-8.83-14.39a45.38,45.38,0,0,1,2.77-9s-4.86-2.89-4.27-10.89,5.58-10.75,5.58-10.75l-2.5-4.25-5,.25s-8.75,2.75-7.75,13.5,5.43,15,5.43,15a18.77,18.77,0,0,0-.79,9.29c.86,5.25,6.53,13.7,6.53,13.7s-8.57.89-14.24-5.28-2.77-17.71-2.77-17.71-.89-4.92-2.15-4.57-3.37,10.61-7.06,6.86-1.26-10-1.26-10-2.14,3.47-3.91,1.22,1-7.5,1-7.5-9-7.75-5.27-13.5,6.87-8.73,12.94-6.61,7.9,7.86,5.74,10.61-4.41,3-4.41,3-5-.47-3.5-4,.25-3.25.25-3.25-2.62,1.25-2.81,3.5,8.32,5.5,8.32,5.5a9.76,9.76,0,0,0,4.92-6.5c.82-4.5,1.94-6.2,5.63-8.39s14.44-3.15,17.44,0a46.76,46.76,0,0,1,5.5,7.39s-9.75,6.5-10.25,11.25-3.61,6.81,1.82,7.28,6.43,2,6.43,2a7.79,7.79,0,0,0-3.5,4c-.75,2.52-3,8.62,0,12.57a38.56,38.56,0,0,0,7,6.87,16.16,16.16,0,0,0,9-8.17c3.25-6.5-1.5-14.11-1.5-14.11s2.5,1.86,6.5-4-8.75-13.88-8.75-15.63-3.5-8,2.25-11.45,17.75,2.06,17.75,2.06l3,8.11s1.17,6,3.28,6.63,6.39,1.33,6.39-1.63S1131.18,251.72,1131.18,251.72Z" transform="translate(-625.6 -136.08)"/><path class="cls-4" d="M791.44,390.22c2.23-22.22-1.77-20.94,11.56-29.92s18.67-5.77,20.67-18.37,5.11-25,11.33-35.16c8-13.1,15.71-16.63,43.21-19.73s67.25-1.92,81.63,4.72C973.9,298.25,975.35,302.62,978,310s3.65,29.23,7,35.34,19.48,9.31,23.4,16.32,3.1,12.65,3.1,12.65l2.31,428.19H799Z" transform="translate(-625.6 -136.08)"/><path class="cls-5" d="M841,383.25s-15.76-70.16,57.08-74.79c83.42-5.3,73.92,74.48,73.92,74.48l28,1.11a10.59,10.59,0,0,1,10.17,10.24l3.59,108.21H791.44L791,394.39a9.16,9.16,0,0,1,8.72-9.18Z" transform="translate(-625.6 -136.08)"/><path class="cls-9" d="M846.45,393S832.07,329.16,898.56,325C974.7,320.12,966,392.72,966,392.72l25.6,1a9.67,9.67,0,0,1,9.29,9.32l3.27,98.48h-203l-.37-98.39a8.33,8.33,0,0,1,8-8.35Z" transform="translate(-625.6 -136.08)"/><line class="cls-10" x1="180.9" y1="267.73" x2="368.9" y2="265.54"/><line class="cls-10" x1="180.9" y1="276.24" x2="368.9" y2="274.05"/><line class="cls-10" x1="180.9" y1="284.74" x2="368.9" y2="282.55"/><line class="cls-10" x1="180.9" y1="293.25" x2="368.9" y2="291.05"/><line class="cls-10" x1="180.9" y1="301.75" x2="368.9" y2="299.56"/><line class="cls-10" x1="225.79" y1="255.67" x2="334.15" y2="254.14"/><line class="cls-10" x1="226.9" y1="246.85" x2="333.04" y2="245.17"/><line class="cls-10" x1="225.79" y1="235.42" x2="333.04" y2="235.42"/><line class="cls-10" x1="225.79" y1="225.58" x2="331.15" y2="225.58"/><line class="cls-10" x1="230.4" y1="216.67" x2="327.15" y2="216.67"/></g><g id="图层_4" data-name="图层 4"><polygon class="cls-11" points="135.93 712.1 425.42 711.58 522.39 864.67 34.73 864.25 135.93 712.1"/><rect class="cls-1" x="166.52" y="711.58" width="15.44" height="19.9"/><rect class="cls-12" x="181.96" y="711.58" width="16.23" height="19.9"/><rect class="cls-12" x="166.52" y="730.04" width="15.44" height="19.9"/><rect class="cls-1" x="181.96" y="730.04" width="16.23" height="19.9"/><rect class="cls-1" x="166.52" y="749.94" width="15.44" height="19.9"/><rect class="cls-12" x="181.96" y="749.94" width="16.23" height="19.9"/><rect class="cls-12" x="166.52" y="768.4" width="15.44" height="19.9"/><rect class="cls-1" x="181.96" y="768.4" width="16.23" height="19.9"/><rect class="cls-1" x="166.52" y="788.29" width="15.44" height="19.9"/><rect class="cls-12" x="181.96" y="788.29" width="16.23" height="19.9"/><rect class="cls-12" x="166.52" y="806.75" width="15.44" height="19.9"/><rect class="cls-1" x="181.96" y="806.75" width="16.23" height="19.9"/><rect class="cls-1" x="166.52" y="826.65" width="15.44" height="19.9"/><rect class="cls-12" x="181.96" y="826.65" width="16.23" height="19.9"/><rect class="cls-12" x="166.52" y="845.11" width="15.44" height="19.9"/><rect class="cls-1" x="181.96" y="845.11" width="16.23" height="19.9"/><rect class="cls-1" x="372.77" y="711.58" width="15.44" height="19.9"/><rect class="cls-12" x="388.21" y="711.58" width="16.23" height="19.9"/><rect class="cls-12" x="372.77" y="730.04" width="15.44" height="19.9"/><rect class="cls-1" x="388.21" y="730.04" width="16.23" height="19.9"/><rect class="cls-1" x="372.77" y="749.94" width="15.44" height="19.9"/><rect class="cls-12" x="388.21" y="749.94" width="16.23" height="19.9"/><rect class="cls-12" x="372.77" y="768.4" width="15.44" height="19.9"/><rect class="cls-1" x="388.21" y="768.4" width="16.23" height="19.9"/><rect class="cls-1" x="372.77" y="788.29" width="15.44" height="19.9"/><rect class="cls-12" x="388.21" y="788.29" width="16.23" height="19.9"/><rect class="cls-12" x="372.77" y="806.75" width="15.44" height="19.9"/><rect class="cls-1" x="388.21" y="806.75" width="16.23" height="19.9"/><rect class="cls-1" x="372.77" y="826.65" width="15.44" height="19.9"/><rect class="cls-12" x="388.21" y="826.65" width="16.23" height="19.9"/><rect class="cls-12" x="372.77" y="845.11" width="15.44" height="19.9"/><rect class="cls-1" x="388.21" y="845.11" width="16.23" height="19.9"/><rect class="cls-1" x="106.56" y="710.54" width="15.44" height="19.9"/><rect class="cls-12" x="122" y="710.54" width="16.23" height="19.9"/><rect class="cls-12" x="106.56" y="729" width="15.44" height="19.9"/><rect class="cls-1" x="122" y="729" width="16.23" height="19.9"/><rect class="cls-1" x="106.56" y="748.9" width="15.44" height="19.9"/><rect class="cls-12" x="122" y="748.9" width="16.23" height="19.9"/><rect class="cls-12" x="106.56" y="767.35" width="15.44" height="19.9"/><rect class="cls-1" x="122" y="767.35" width="16.23" height="19.9"/><rect class="cls-1" x="106.56" y="787.25" width="15.44" height="19.9"/><rect class="cls-12" x="122" y="787.25" width="16.23" height="19.9"/><rect class="cls-12" x="106.56" y="805.71" width="15.44" height="19.9"/><rect class="cls-1" x="122" y="805.71" width="16.23" height="19.9"/><rect class="cls-1" x="106.56" y="825.61" width="15.44" height="19.9"/><rect class="cls-12" x="122" y="825.61" width="16.23" height="19.9"/><rect class="cls-12" x="106.56" y="844.06" width="15.44" height="19.9"/><rect class="cls-1" x="122" y="844.06" width="16.23" height="19.9"/><rect class="cls-1" x="424.9" y="710.54" width="15.44" height="19.9"/><rect class="cls-12" x="440.33" y="710.54" width="16.23" height="19.9"/><rect class="cls-12" x="424.9" y="729" width="15.44" height="19.9"/><rect class="cls-1" x="440.33" y="729" width="16.23" height="19.9"/><rect class="cls-1" x="424.9" y="748.9" width="15.44" height="19.9"/><rect class="cls-12" x="440.33" y="748.9" width="16.23" height="19.9"/><rect class="cls-12" x="424.9" y="767.35" width="15.44" height="19.9"/><rect class="cls-1" x="440.33" y="767.35" width="16.23" height="19.9"/><rect class="cls-1" x="424.9" y="787.25" width="15.44" height="19.9"/><rect class="cls-12" x="440.33" y="787.25" width="16.23" height="19.9"/><rect class="cls-12" x="424.9" y="805.71" width="15.44" height="19.9"/><rect class="cls-1" x="440.33" y="805.71" width="16.23" height="19.9"/><rect class="cls-1" x="424.9" y="825.61" width="15.44" height="19.9"/><rect class="cls-12" x="440.33" y="825.61" width="16.23" height="19.9"/><rect class="cls-12" x="424.9" y="844.06" width="15.44" height="19.9"/><rect class="cls-1" x="440.33" y="844.06" width="16.23" height="19.9"/></g><g id="图层_3" data-name="图层 3"><path class="cls-13" d="M736.29,385.62c16,4.38,19.13,2.76,19.13,2.76s11.72-19.51,13.62-22.71c10.24-17.21,17.41-49.79,17.41-49.79-4-5.88-7.58,0-7.58,0L775.37,329s6.25-17,4.5-19-2.25-3.2-6-1.72-11,29.22-11,29.22-.86,7.9-3.33,10.92c-1.1,1.33-3-.12-4.45-.52-1.16-.34.11-11.72,1.66-17.09a4.87,4.87,0,0,1,1.2-2.48c2.17-1.33,3.17-3.33,7.51,0l-8.71,2.48s-4.3-2.48-6.63,0-2.83,4.69-2,16.88c0,0,.69.7,6.86-.48l-7.24-7.71" transform="translate(-625.6 -136.08)"/></g><g id="图层_2" data-name="图层 2"><polyline class="cls-14" points="310.38 826.92 269.67 780.25 261.68 785.58 264.37 790.25 251.15 798.92 257.04 805.92 260.68 803.58 264.37 808.92 261.68 812.25 267.76 818.25 277.12 808.92 301.31 831.25"/><polygon class="cls-15" points="266.31 796.46 258.26 802.22 266.12 810.67 273.04 803.92 266.31 796.46"/><circle class="cls-14" cx="312.37" cy="842.17" r="16.25"/><ellipse class="cls-15" cx="311.61" cy="842.17" rx="12" ry="12.5"/><line class="cls-16" x1="320.12" y1="833.36" x2="302.63" y2="850.44"/><line class="cls-16" x1="305.02" y1="831.72" x2="319.6" y2="851.48"/><path class="cls-1" d="M865.33,876l22.34-6.33,16,8.66s2.11,7-3.45,12-5.22,3.92-16.56,7.34c-13.18,4-13.66,1.66-13.66,1.66s-1.33,2.67-4.67-6.33-1-13,0-17" transform="translate(-625.6 -136.08)"/><path class="cls-1" d="M873.14,882.13c5.75-.25,14.59,2.4,14.59,2.4" transform="translate(-625.6 -136.08)"/><path class="cls-1" d="M886.3,876.88s-2.79.83-6.6,5.92-5.56,7.13-5.56,7.13" transform="translate(-625.6 -136.08)"/><path class="cls-1" d="M952.5,877.48l-22.34-6.33-16,8.67s-2.1,7,3.45,12,5.22,3.91,16.56,7.33c13.18,4,13.66,1.67,13.66,1.67s1.33,2.66,4.67-6.34,1-13,0-17" transform="translate(-625.6 -136.08)"/><path class="cls-1" d="M944.69,883.61c-5.75-.25-14.58,2.41-14.58,2.41" transform="translate(-625.6 -136.08)"/><path class="cls-1" d="M931.54,878.36s2.78.83,6.59,5.92,5.56,7.13,5.56,7.13" transform="translate(-625.6 -136.08)"/><path class="cls-6" d="M799.67,823.67l222.33-6s-5.33,47,2.33,52.33,13.67,5.33,7.34,8.67-14,8.33-21,6-6-5-7-2.34-1,5.34-15.34,6.34-6.66-4-26.66-5.34-16.59-7-26-4.66-4.38,4-18.71,5S904,881,891,878s-18,7.67-29,6-7.34-3.33-19-4-12-7-21.33-5.33S800,884.33,791,878.33s5.33-14.66,9-16.66,5.22-1,.33-11.34S799.67,823.67,799.67,823.67Z" transform="translate(-625.6 -136.08)"/><path class="cls-17" d="M787.67,448.05c9.33,0,37-21.22,45-23.72s36-6.67,36-6.67l67.74-1.9s31.62,3.59,43.29,10.75S1004,443.67,1010.33,456s9.34,14,13.34,18.67S1036.33,486.25,1043,501s9.23,63.76,7.5,78.5.83,11-5.5,39.34-20.66,29.73-19.33,34.49,10.33,27,12.66,45.34,3.63,30,2,46-2.66,18.33-3.33,32.66,8.67,44,8.67,44a48.27,48.27,0,0,1-18.67,14c-12,5-10.33,1-32.67,3.34s-32,23.66-65.64,28-55-7-68.67-9.34-21,3.34-35.69-1.33-8.66-7.33-8.66-7.33l-28-12s4-70,0-85.34-8-25.33-9.34-55.33S799,641.21,799,641.21s-49.11-24-64.5-67.21c-15.5-43.5-21.83-75.67-16.17-104.67s25.34-46.84,25.34-46.84,8.66-4.83,16-4.83S778.33,448.05,787.67,448.05Z" transform="translate(-625.6 -136.08)"/><path class="cls-1" d="M811.92,431.13l12.47-6.7A4.32,4.32,0,0,1,830.1,426C901,540.43,992.44,436.8,994,434.76a2.62,2.62,0,0,1,4.18,0l10.76,14.29a4.9,4.9,0,0,1-.53,6.47c-109.47,105.6-183.57,5.13-198.22-17.68A4.73,4.73,0,0,1,811.92,431.13Z" transform="translate(-625.6 -136.08)"/><path class="cls-18" d="M861.75,416.25,870,409.5c40,22.5,70.3,0,70.3,0l10.45,5C913.25,478.75,861.75,416.25,861.75,416.25Z" transform="translate(-625.6 -136.08)"/><path class="cls-19" d="M943.51,364.8l-10.17-4.5-3.29,32.48c-2.12,42.77,0,55.27,0,55.27,12.88-2.25,12.88-5.5,12.88-5.5l-1.16-42.75Z" transform="translate(-625.6 -136.08)"/><path class="cls-19" d="M872.67,362.25l10.16-4.5,3.29,32.47c2.13,42.78,0,55.28,0,55.28-12.87-2.25-12.87-5.5-12.87-5.5l1.16-42.75Z" transform="translate(-625.6 -136.08)"/><path class="cls-20" d="M883.39,390.22l46.28,4.11,8.89,14.09c-4.58,23.44-25.07,27.11-31,27.56a11.43,11.43,0,0,1-4-.37c-20.48-5.67-29.24-26.78-29.24-26.78s0-.93,4.59-8.66S883.39,390.22,883.39,390.22Z" transform="translate(-625.6 -136.08)"/><circle class="cls-21" cx="280.88" cy="233.92" r="33.82"/><circle class="cls-22" cx="270.65" cy="232.5" r="2.92"/><circle class="cls-22" cx="290.15" cy="232.5" r="2.92"/><ellipse class="cls-23" cx="264.65" cy="238.23" rx="4.13" ry="3.69"/><ellipse class="cls-23" cx="294.77" cy="239.11" rx="4.13" ry="3.69"/><line class="cls-24" x1="280.4" y1="235.42" x2="280.4" y2="243.42"/><path class="cls-24" d="M899.88,383.25s3,2.37,6.12,2.37a8.25,8.25,0,0,0,5.38-2.37" transform="translate(-625.6 -136.08)"/><path class="cls-25" d="M866.17,351.75l12.21-4.54C864.5,509.25,858,515.75,858,515.75c-16.25-20.25-12.5-23.25-12.5-23.25C859,426.25,866.17,351.75,866.17,351.75Z" transform="translate(-625.6 -136.08)"/><path class="cls-18" d="M870,354.67l12.17-10.84s.66,16.75.66,27.67-5.16,32.32-5.16,32.32c-7,1.85-11.5-4-11.5-4a162.72,162.72,0,0,0,4.66-37.16Z" transform="translate(-625.6 -136.08)"/><path class="cls-25" d="M945.36,351.75l-12.22-4.54c13.88,162,20.38,168.54,20.38,168.54C969.77,495.5,966,492.5,966,492.5,952.52,426.25,945.36,351.75,945.36,351.75Z" transform="translate(-625.6 -136.08)"/><path class="cls-18" d="M941.52,354.67l-12.16-10.84s-.67,16.75-.67,27.67,5.17,32.32,5.17,32.32c7,1.85,11.5-4,11.5-4a163.12,163.12,0,0,1-4.67-37.16Z" transform="translate(-625.6 -136.08)"/><path class="cls-26" d="M882.83,401.62S893,419.5,907.5,417.5s23-13.68,23-13.68" transform="translate(-625.6 -136.08)"/><path class="cls-26" d="M882.83,412S893,429.85,907.5,427.85s23-13.68,23-13.68" transform="translate(-625.6 -136.08)"/><path class="cls-27" d="M863.75,360.3C895,327.5,946,357.75,946,357.75l9-48.25L927.5,274l-6-17.75H884.75L879.87,274l-26.12,37.5Z" transform="translate(-625.6 -136.08)"/><path class="cls-28" d="M868.64,339.34c45.06-21.89,80.17,3.21,80.17,3.21L946,357.75a108.69,108.69,0,0,0-42.73-12.68c-27.5,1.54-39.49,15.23-39.49,15.23l-3.27-15.95" transform="translate(-625.6 -136.08)"/><path class="cls-29" d="M868.64,338.67l-6.89-14.17s4.42-.83,2.42-4.5-4.17.67-4.17.67,1.75-5.67-3-4.67-1.09,6-1.09,6-3.41-4.19-4.41,1.15,5.35,3.46,5.35,3.46l3.53,17.2q4.17-2.52,8.26-4.49" transform="translate(-625.6 -136.08)"/><path class="cls-29" d="M888.08,331.33l-4.22-15.17s4.49,0,3.18-4-4.22-.1-4.22-.1,2.75-5.26-2.11-5.13-2.16,5.73-2.16,5.73-2.6-4.73-4.54.33,4.64,4.37,4.64,4.37l.38,17.56c3-1.15,6-2.12,8.93-2.93" transform="translate(-625.6 -136.08)"/><path class="cls-29" d="M941.4,337.5l6.89-14.17s-4.42-.83-2.42-4.5,4.17.67,4.17.67-1.75-5.67,3-4.67,1.09,6,1.09,6,3.41-4.18,4.41,1.15-5.35,3.46-5.35,3.46l-3.53,17.21c-2.78-1.68-5.54-3.17-8.26-4.5" transform="translate(-625.6 -136.08)"/><path class="cls-29" d="M922,331.17,926.18,316s-4.49,0-3.18-4,4.22-.09,4.22-.09-2.75-5.26,2.11-5.13,2.16,5.72,2.16,5.72,2.59-4.73,4.54.34-4.64,4.36-4.64,4.36L931,334.76c-3-1.15-6-2.12-8.93-2.93" transform="translate(-625.6 -136.08)"/><path class="cls-29" d="M910.27,330.38l-2.76-17.68s4.47.48,3.61-3.61-3.35-.81-3.35-.81,1.71-4.68-3.13-5.1-2,5.46-2,5.46-2-5-4.55-.18,4.12,4.86,4.12,4.86l-1.59,17.49c3.15-.8,6.67.05,9.66-.43" transform="translate(-625.6 -136.08)"/><path class="cls-29" d="M866.38,300.55l-4.8-9.88s3.08-.59,1.68-3.14-2.9.46-2.9.46,1.22-3.95-2.1-3.26-.76,4.2-.76,4.2-2.38-2.92-3.08.81,3.74,2.41,3.74,2.41l2.46,12c1.94-1.17,3.87-2.21,5.76-3.14" transform="translate(-625.6 -136.08)"/><path class="cls-29" d="M878.21,296.76l-2.57-10.69s3.13.09,2.32-2.71-2.94-.17-2.94-.17,2.05-3.6-1.34-3.63S872,283.5,872,283.5s-1.69-3.37-3.18.12,3.13,3.16,3.13,3.16L871.8,299c2.15-.73,4.25-1.33,6.3-1.82" transform="translate(-625.6 -136.08)"/><path class="cls-29" d="M892.53,294.08l-2.19-10.77s3.13.2,2.42-2.63-2.94-.27-2.94-.27,2.17-3.53-1.21-3.68-1.79,3.88-1.79,3.88-1.57-3.42-3.18,0,3,3.27,3,3.27L886,296.13q3.27-1,6.37-1.59" transform="translate(-625.6 -136.08)"/><path class="cls-29" d="M939.43,297.68l4.8-9.88s-3.08-.58-1.68-3.14,2.91.46,2.91.46-1.23-3.95,2.09-3.26.76,4.21.76,4.21,2.38-2.93,3.08.8-3.74,2.41-3.74,2.41l-2.46,12c-1.94-1.17-3.87-2.21-5.76-3.13" transform="translate(-625.6 -136.08)"/><path class="cls-29" d="M927.6,293.89l2.57-10.69s-3.13.09-2.32-2.71,2.94-.17,2.94-.17-2-3.6,1.34-3.63,1.65,3.94,1.65,3.94,1.7-3.36,3.18.12-3.13,3.16-3.13,3.16l.18,12.26c-2.15-.73-4.25-1.33-6.3-1.82" transform="translate(-625.6 -136.08)"/><path class="cls-29" d="M915.16,291.24l2.19-10.77s-3.13.2-2.42-2.62,2.93-.28,2.93-.28-2.17-3.52,1.22-3.67,1.79,3.87,1.79,3.87,1.57-3.42,3.17,0-3,3.27-3,3.27l.61,12.25q-3.25-1-6.36-1.6" transform="translate(-625.6 -136.08)"/><path class="cls-29" d="M908.59,293.36l-2-12.65s3.19.35,2.58-2.58-2.4-.58-2.4-.58,1.23-3.35-2.23-3.64-1.44,3.9-1.44,3.9-1.47-3.57-3.26-.13,3,3.48,3,3.48l-1.14,12.51c2.26-.58,4.78,0,6.91-.31" transform="translate(-625.6 -136.08)"/><path class="cls-29" d="M896,265.87l-6.89-10.63s3.38-1.09,1.43-3.82-3.21.94-3.21.94.79-4.69-2.84-3.43-.23,4.9-.23,4.9-3.11-3-3.34,1.33,4.56,2.25,4.56,2.25L890,270.78c2-1.61,4-3.06,6-4.38" transform="translate(-625.6 -136.08)"/><path class="cls-29" d="M913.82,265.09l6.66-10.77s-3.4-1-1.5-3.79,3.22.87,3.22.87-.88-4.67,2.77-3.49.34,4.9.34,4.9,3-3.07,3.36,1.27-4.51,2.33-4.51,2.33l-4.29,13.46q-3.06-2.34-6.11-4.24" transform="translate(-625.6 -136.08)"/><path class="cls-29" d="M909.15,267.29l-2.23-14.57s3.61.39,2.92-3-2.71-.67-2.71-.67,1.38-3.86-2.54-4.2-1.63,4.5-1.63,4.5-1.66-4.11-3.68-.14,3.34,4,3.34,4l-1.29,14.42c2.55-.67,5.4,0,7.82-.36" transform="translate(-625.6 -136.08)"/><path class="cls-29" d="M880.87,275.17c22.4-11.67,44.8-1.28,44.8-1.28l-2.5-9.56c-16.69-14.33-39,0-39,0Z" transform="translate(-625.6 -136.08)"/><path class="cls-29" d="M855.67,311.83c40.35-20.29,97.5-2,97.5-2L944.33,298c-37.85-16.22-80.33,1-80.33,1Z" transform="translate(-625.6 -136.08)"/><path class="cls-30" d="M799,455.5s15.76,61.66,24.5,85.5,23.86,68.3,36.52,84.5,28,33.5,55.73,31S963,614,963,614" transform="translate(-625.6 -136.08)"/><path class="cls-30" d="M1000.5,464.5S983,495.77,976.5,510s-21.88,55.5-52,64-52-9-64.48-25-17-35.5-17-35.5" transform="translate(-625.6 -136.08)"/><path class="cls-30" d="M872.67,662s22.21,26.25,49.08,21.5c23.58-4.17,33.65-15.62,39.41-26.76S972,634,978,630.5s16,0,16,0" transform="translate(-625.6 -136.08)"/><path class="cls-30" d="M791,677.94S805,663,824,663s24.25,7.57,32,21.07S862.5,736,872.67,763,895,802.5,895,802.5" transform="translate(-625.6 -136.08)"/><path class="cls-30" d="M779.5,452.5s6.06,66.5,11.5,94,16.12,61.84,0,70.5-47.5-70-47.5-70" transform="translate(-625.6 -136.08)"/><path class="cls-30" d="M1028,502.5a56.7,56.7,0,0,0-11,29c-3.07,35.52-5.44,54.49-5.5,79-.07,28.75,3.42,28.2,8.17,31.2s12.66-7,14.33-36.2a208.76,208.76,0,0,0,0-22.5" transform="translate(-625.6 -136.08)"/><path class="cls-16" d="M769.5,464.5c2.5,14.5-5.83,19.17-5.83,19.17" transform="translate(-625.6 -136.08)"/><path class="cls-1" d="M1015,572.67s18.72,10.44,29.72,7,15.45-26.34,17-46.34-4.67-35-3.67-44.33,6.33-22.33,5-28.67-6.57-13.66-23.33-7.83-15.34,18.17-15.34,18.17,5.84,31.25,2.17,38.33-5.94,7.08-5.94,7.08-4.65,27.68-4.23,40C1016.74,568.16,1015,572.67,1015,572.67Z" transform="translate(-625.6 -136.08)"/><path class="cls-1" d="M903.34,474.08h14.52a2.8,2.8,0,0,1,2.74,2.56C931,625.51,924.73,653.7,925.5,663c1.33,16.17-.5,70.83,3.61,94.33,1.77,10.11,5.09,28,6.52,35.67a4.81,4.81,0,0,1-2.7,5.24L920.57,804a3.62,3.62,0,0,1-5.1-2.69c-1.75-10.47-7.8-31.3-8-47.87-.22-15.72-3.06-90.43-3.06-90.43s.79-85.5.79-96.67-4.93-88.8-4.93-88.8A3.12,3.12,0,0,1,903.34,474.08Z" transform="translate(-625.6 -136.08)"/><line class="cls-16" x1="286.4" y1="358.92" x2="287.73" y2="388.25"/><line class="cls-16" x1="280.36" y1="372.64" x2="293.68" y2="372.64"/><line class="cls-16" x1="284.02" y1="462.82" x2="296.02" y2="462.57"/><line class="cls-16" x1="289.52" y1="449.82" x2="290.27" y2="478.51"/><line class="cls-16" x1="284.05" y1="541.86" x2="296.15" y2="541.86"/><line class="cls-16" x1="289.9" y1="531.25" x2="289.9" y2="555.42"/><polygon class="cls-16" points="296.15 641.17 292.36 651.42 299.65 660.17 302.65 648.42 296.15 641.17"/><path class="cls-31" d="M736.29,385.62" transform="translate(-625.6 -136.08)"/><path class="cls-31" d="M747.74,339.5" transform="translate(-625.6 -136.08)"/><path class="cls-31" d="M736.29,377.92" transform="translate(-625.6 -136.08)"/><path class="cls-31" d="M735.11,379.35c4.25-28,11.63-37.42,11.63-37.42,0-6-.13-7.41,3.12-10.64a4.06,4.06,0,0,1,6.13,0,4.64,4.64,0,0,1,3.37-3.73,6.28,6.28,0,0,1,5.5.87s4-13.08,5-15.16,1.63-3.59,3.75-4.84a5.4,5.4,0,0,1,6.13.62c1.37,1.26.26,4.81.13,5.57s1.12-1.65,4-1.35,3.5,3.41,3.5,3.41-2,16-11,36.75-17,29.51-17,29.51-2.47-3.8-10.55-3.59S735.11,379.35,735.11,379.35Z" transform="translate(-625.6 -136.08)"/><path class="cls-16" d="M747.5,370.62c3.17-10.79,15.83-17.79,15.83-17.79s3.4-29.24,10.5-23.83l1.41,22.2" transform="translate(-625.6 -136.08)"/><path class="cls-16" d="M779.87,314.62c-6,14.38-5.88,16.9-5.88,16.9" transform="translate(-625.6 -136.08)"/><path class="cls-16" d="M756,331.29c-1.11,9.83-1.27,15.12,0,15.92s4.36,1.83,5.25.94,2.9-1.33,3.26-10.53l.36-9.19" transform="translate(-625.6 -136.08)"/><path class="cls-16" d="M746.74,341.93c.76,4.57.38,6.53,2.14,7.55a4.61,4.61,0,0,0,5.37,0c2.36-1.61,1.74-2.27,1.74-2.27" transform="translate(-625.6 -136.08)"/><path class="cls-1" d="M786.93,520.36s-45.26-1.69-50.43-11.86-4.33-11.67-5.08-31.48c-.72-19.35,2.25-32.2-.92-52.52s-5.45-23.71-7.5-30c-2.33-7.17,8.5-16.59,20.5-16.5,26.5-1.5,16.6,18.47,16,25.82-.67,8.24,5.83,54.18,10,60.68s11.79,6.42,11.79,6.42Z" transform="translate(-625.6 -136.08)"/><path class="cls-1" d="M771.52,467C769.67,480.67,761.37,488,761.37,488" transform="translate(-625.6 -136.08)"/><path class="cls-31" d="M1054.67,450.37c7.16-15.2,7.16-20.2,7.5-21.37s1.16-.33,2.16-3.83a6.4,6.4,0,0,0-1.12-5.84c2.79-3.83-.28-8.33,0-8.83s1.83-3.17,1.39-5.17-3.43-3.71-3.43-3.71-9.84-1.79-12.67-1.12-9.42,3.32-9.42,3.32-.75-2.15-3.41-1.32-10.67,9.36-11.34,13.26a55.14,55.14,0,0,0,.67,22.57,118.76,118.76,0,0,0,5.33,17.17l1,2.83s2.33,1.34,7.75,1.5,14.42-4.33,14.42-4.33Z" transform="translate(-625.6 -136.08)"/><path class="cls-16" d="M1062.5,409.64a51.19,51.19,0,0,0-15.33.69c-8.34,1.67-12.67,4.67-12.67,4.67s-1.5,0-2.5-3,1.33-3.31,7.08-8.16" transform="translate(-625.6 -136.08)"/><path class="cls-16" d="M1062.5,420c-13.17-.66-25.83,2.84-26.5,2.68s-3.39-1.83-3.5-3.83a7.63,7.63,0,0,1,1-3.84" transform="translate(-625.6 -136.08)"/><path class="cls-16" d="M1062.17,429c-15.17.17-18.36,2.56-20.67,1.09-5.5-3.48-1.33-7.42-1.33-7.42" transform="translate(-625.6 -136.08)"/><path class="cls-14" d="M1039.08,403.82c5.3-2.29,6.71-3.23,7.27-2.55a.16.16,0,0,0,.28-.08l5.54-36.69,32.83,4.08,1.5-7.41-32.67-4.67.67-7.33,27.83,3.66,1.17-7.49-27.83-4,.66-7.66,20.5,1.83.84-6.81-22-2.69.33-5.23-6.83-1.27-1,5.17-20.84-2.34-.83,6.36,20.64,2.81-1.14,8.67-27.67-4-1.16,6.49,26.91,4.54L1043,354l-32.33-4.17-.77,7.84,32.6,4.83Z" transform="translate(-625.6 -136.08)"/><circle class="cls-14" cx="427.38" cy="179.7" r="5.78"/><polyline class="cls-14" points="269.39 826.92 310.1 780.25 318.09 785.58 315.4 790.25 328.62 798.92 322.73 805.92 319.09 803.58 315.4 808.92 318.09 812.25 312.01 818.25 302.65 808.92 278.46 831.25"/><polygon class="cls-15" points="313.46 796.46 321.51 802.22 313.65 810.67 306.73 803.92 313.46 796.46"/><circle class="cls-14" cx="267.4" cy="842.17" r="16.25"/><ellipse class="cls-15" cx="268.16" cy="842.17" rx="12" ry="12.5"/><line class="cls-16" x1="259.65" y1="833.36" x2="277.14" y2="850.44"/><line class="cls-16" x1="274.75" y1="831.72" x2="260.17" y2="851.48"/><path class="cls-32" d="M660.33,864.33C678.67,858,674,857,686,855s64.67,8.62,77.33,12.64,17.34,6.92,21.67,14.47,3,11.56,10.67,23.22,11,14.42,15.66,27.21,6,22.29,6,45.71v23.42l-157-1.34Z" transform="translate(-625.6 -136.08)"/><path class="cls-1" d="M682.46,860.33c.87,4,10.54,8.3,28.21,10.82s55,6.47,52.66-3.51-6.66-4.8-10.66-12.89,2.66-10-13.84-12.73-32.65-8.83-39.16-2-3.34,9.72-7.34,10.86-8.81-.3-9.87,2.37S682.46,860.33,682.46,860.33Z" transform="translate(-625.6 -136.08)"/><path class="cls-16" d="M751.33,858.67c-14-5.34-15.24-7.84-28.62-9.67a87.41,87.41,0,0,0-24,0" transform="translate(-625.6 -136.08)"/><path class="cls-33" d="M662.69,860.31A68.19,68.19,0,0,1,677,854.12a2.84,2.84,0,0,1,3.59,2.37c.12,1-1-4.39,1.44,7.84,5.15,25.64,17.69,63.76,24,63.88s11-16.8,35-39.5c15.37-14.54,22.53-20.05,25.7-22.12a4.58,4.58,0,0,1,4.39-.34c2.61,1.18,6.93,3.23,8.58,4.58a35.11,35.11,0,0,1,5.24,6.46,2.34,2.34,0,0,1-1.12,3.5c-5.09,1.94-16.64,8.58-32.46,31.21-21.66,31-27.57,55.33-28.62,61s0,27.86,0,27.86l-31,.81s4.77-17,3.38-30.34-2.72-10.13-18.72-45.9-16-43.32-16-43.32V864.34A4.61,4.61,0,0,1,662.69,860.31Z" transform="translate(-625.6 -136.08)"/><circle class="cls-34" cx="153.3" cy="826.13" r="15.47"/><circle class="cls-34" cx="143.98" cy="782.5" r="10.58"/><circle class="cls-34" cx="84.9" cy="769.75" r="10.5"/><circle class="cls-34" cx="51.73" cy="836.25" r="14"/><circle class="cls-35" cx="127.72" cy="799.24" r="4.32"/><circle class="cls-35" cx="96.71" cy="746.26" r="3.98"/><circle class="cls-35" cx="87.63" cy="749.98" r="2.74"/><circle class="cls-35" cx="100" cy="758.62" r="3.29"/><circle class="cls-35" cx="70.19" cy="749.38" r="4.46"/><circle class="cls-35" cx="72.3" cy="740.1" r="2.1"/><circle class="cls-35" cx="64.06" cy="735.25" r="1.67"/><circle class="cls-35" cx="111.01" cy="744.9" r="2.62"/><circle class="cls-35" cx="155.98" cy="764.5" r="5.25"/><circle class="cls-35" cx="164.24" cy="791.78" r="4.53"/><circle class="cls-35" cx="165.62" cy="806.71" r="3.15"/><circle class="cls-35" cx="178.65" cy="798" r="4.92"/><circle class="cls-35" cx="182.51" cy="813.72" r="3.87"/><circle class="cls-35" cx="176.73" cy="841.58" r="5.33"/><circle class="cls-35" cx="163.63" cy="852.51" r="3.92"/><circle class="cls-35" cx="182.35" cy="856.21" r="3.71"/><circle class="cls-35" cx="112.98" cy="828.83" r="4.58"/><circle class="cls-35" cx="126.34" cy="823.19" r="2.94"/><circle class="cls-35" cx="120.23" cy="811.42" r="3.17"/><circle class="cls-35" cx="136.85" cy="851.4" r="4.81"/><circle class="cls-35" cx="113.44" cy="849.63" r="5.04"/><circle class="cls-35" cx="148.36" cy="849.54" r="2.96"/><circle class="cls-35" cx="59.56" cy="857.01" r="4.5"/><circle class="cls-35" cx="43.2" cy="854.2" r="2.8"/><circle class="cls-35" cx="45.1" cy="805.96" r="4.71"/><circle class="cls-35" cx="57.31" cy="813.67" r="2.25"/><circle class="cls-35" cx="42.23" cy="786.42" r="1.83"/><path class="cls-36" d="M682.67,825.25c4-11.67,6-21.5,8-31.42s13.66-21.25,23.33-22.58,20-1.67,23.67,0,20.07,2.66,23.86,15.66S763,807.25,764,815.25s5.67,10,0,17.33,5,19.13-30.33,18.23-36.34,3.24-44.67-9.5S682.67,825.25,682.67,825.25Z" transform="translate(-625.6 -136.08)"/><ellipse class="cls-37" cx="100.56" cy="672.19" rx="31.11" ry="28.52"/><path class="cls-38" d="M1148,864.75c-18.33-6.33-13.66-7.33-25.66-9.33S1057.66,864,1045,868.07s-17.33,6.91-21.66,14.46-3,11.56-10.67,23.22-11,14.42-15.67,27.21-6,22.29-6,45.71v23.42l157-1.34Z" transform="translate(-625.6 -136.08)"/><path class="cls-1" d="M1125.87,860.75c-.88,4-10.54,8.3-28.21,10.82s-55,6.47-52.67-3.5,6.67-4.81,10.67-12.9-2.67-10,13.83-12.73,32.66-8.82,39.17-2,3.33,9.73,7.33,10.86,8.82-.3,9.88,2.37S1125.87,860.75,1125.87,860.75Z" transform="translate(-625.6 -136.08)"/><path class="cls-16" d="M1057,859.09c14-5.34,15.25-7.84,28.63-9.67a87.44,87.44,0,0,1,24,0" transform="translate(-625.6 -136.08)"/><path class="cls-33" d="M1145.64,860.73a68.42,68.42,0,0,0-14.26-6.19,2.84,2.84,0,0,0-3.59,2.37c-.12,1,1-4.39-1.45,7.84-5.15,25.64-17.68,63.76-24,63.88s-11-16.8-35-39.5c-15.37-14.54-22.54-20-25.71-22.12a4.55,4.55,0,0,0-4.39-.33c-2.61,1.17-6.92,3.22-8.57,4.57a34.7,34.7,0,0,0-5.24,6.46,2.34,2.34,0,0,0,1.12,3.5c5.08,1.94,16.64,8.58,32.45,31.21,21.67,31,27.58,55.33,28.63,61s0,27.86,0,27.86l31,.81s-4.77-17-3.39-30.34,2.72-10.13,18.72-45.89,16-43.33,16-43.33V864.77A4.62,4.62,0,0,0,1145.64,860.73Z" transform="translate(-625.6 -136.08)"/><path class="cls-36" d="M1125.66,825.67c-4-11.67-6-21.5-8-31.42S1104,773,1094.33,771.67s-20-1.67-23.67,0-20.07,2.67-23.87,15.67-1.46,20.33-2.46,28.33-5.67,10,0,17.33-5,19.13,30.33,18.23,36.33,3.24,44.67-9.5S1125.66,825.67,1125.66,825.67Z" transform="translate(-625.6 -136.08)"/><ellipse class="cls-37" cx="458.78" cy="672.55" rx="31.11" ry="28.52"/><polygon class="cls-39" points="393.9 813.67 400.9 788.25 419.29 809.85 410.9 810.67 411.4 822.25 402.4 814.58 393.9 813.67"/><polygon class="cls-39" points="413.4 846.58 436.4 831.25 436.4 856.21 431.39 854.2 419.29 859.92 421.19 850.25 413.4 846.58"/><path class="cls-39" d="M991,974.5l9.51-8.75s-9.5,6.25,0,8.75l9.5,2.5-9.5,4.67v6.92L991,984.67Z" transform="translate(-625.6 -136.08)"/><polygon class="cls-39" points="466.4 755.33 475.4 771.92 487.67 749.38 479.9 748.8 473.4 740.8 469.4 746.03 458.12 747.24 466.4 755.33"/><polygon class="cls-39" points="514.4 820.25 503.4 829.67 522.39 836.25 522.39 813.67 514.4 820.25"/><text class="cls-40" transform="translate(48.41 908.9)"><tspan xml:space="preserve">THE   HIEROPHANT</tspan></text><path class="cls-41" d="M1036,422.67l0,.5-21,219h7.95l18.18-211.64s-1.85,0-2.43-3.57,0-3.92,0-3.92Z" transform="translate(-625.6 -136.08)"/></g></svg>