<svg id="圣杯侍从" xmlns="http://www.w3.org/2000/svg" viewBox="0 0 556.47 961.99"><defs><style>.cls-1,.cls-14,.cls-29{fill:#fff;}.cls-1,.cls-10,.cls-11,.cls-12,.cls-14,.cls-16,.cls-17,.cls-18,.cls-19,.cls-2,.cls-21,.cls-22,.cls-23,.cls-24,.cls-25,.cls-28,.cls-29,.cls-3,.cls-30,.cls-4,.cls-5,.cls-6,.cls-7,.cls-8,.cls-9{stroke:#231815;}.cls-1,.cls-10,.cls-2,.cls-20,.cls-21,.cls-22,.cls-27,.cls-28,.cls-29,.cls-3,.cls-30,.cls-4,.cls-5,.cls-6,.cls-7,.cls-8,.cls-9{stroke-linecap:round;}.cls-1{stroke-linejoin:round;stroke-width:3px;}.cls-2{fill:#eeeed7;}.cls-10,.cls-11,.cls-12,.cls-13,.cls-14,.cls-15,.cls-16,.cls-17,.cls-18,.cls-19,.cls-2,.cls-20,.cls-21,.cls-22,.cls-23,.cls-24,.cls-25,.cls-26,.cls-27,.cls-28,.cls-29,.cls-3,.cls-30,.cls-4,.cls-5,.cls-6,.cls-7,.cls-8,.cls-9{stroke-miterlimit:10;}.cls-10,.cls-11,.cls-12,.cls-14,.cls-15,.cls-16,.cls-17,.cls-18,.cls-19,.cls-2,.cls-21,.cls-22,.cls-23,.cls-24,.cls-25,.cls-26,.cls-27,.cls-28,.cls-29,.cls-3,.cls-30,.cls-4,.cls-5,.cls-6,.cls-7,.cls-8,.cls-9{stroke-width:2px;}.cls-13,.cls-15,.cls-16,.cls-20,.cls-27,.cls-3{fill:none;}.cls-4{fill:#84badf;}.cls-5{fill:#34bbaf;}.cls-6{fill:#eaee90;}.cls-7{fill:#ffc631;}.cls-19,.cls-8{fill:#f6afea;}.cls-9{fill:#f6de00;}.cls-10{fill:#ff574a;}.cls-11{fill:#00baeb;}.cls-12,.cls-22{fill:#f9d1b9;}.cls-13{stroke:#f6de00;stroke-width:5px;}.cls-15,.cls-26{stroke:#ffadaf;}.cls-17{fill:#601986;}.cls-18{fill:#ffd21a;}.cls-20{stroke:#ff574a;stroke-width:6px;}.cls-21{fill:#6fd3f2;}.cls-23,.cls-30,.cls-31{fill:#231815;}.cls-24{fill:#6a3906;}.cls-25{fill:#0099d6;}.cls-26{fill:#ffadaf;}.cls-27{stroke:#e4007f;}.cls-28{fill:#33f0c5;}.cls-31{font-size:46px;font-family:ArialRoundedMTBold, Arial Rounded MT Bold;letter-spacing:-0.03em;}.cls-32{letter-spacing:0.03em;}.cls-33{letter-spacing:0.05em;}.cls-34{letter-spacing:0.17em;}.cls-35{letter-spacing:0.06em;}</style></defs><g id="图层_22" data-name="图层 22"><rect class="cls-1" x="624.6" y="138.08" width="553.47" height="958.99" rx="31.02" transform="translate(1179.58 1098.57) rotate(-180)"/><rect class="cls-2" x="35.9" y="34.03" width="481" height="827.27"/></g><g id="图层_19" data-name="图层 19"><path class="cls-3" d="M659,904.08" transform="translate(-623.1 -136.58)"/><line class="cls-3" x1="35.9" y1="861.3" x2="516.9" y2="861.3"/><path class="cls-4" d="M659,904.08l481,3.67V831.6s-1,4.45-35,1.92-51.43-16.64-83.72-15.08-61.06,31.08-94.67,24.82-66.39-15.93-97.5-15.1S778,836.05,758,833.52s-53-18.85-74-16.19-25,7.73-25,7.73v79Z" transform="translate(-623.1 -136.58)"/><path class="cls-5" d="M703,870.33c41.78-6.82,81.32-26.47,122.62-24.42s99.87,47.14,127.63,35.23,68-27.45,99.85-26.29,86.9,11.86,86.9,11.86v41l-481-3.67V861.27S690.35,872.39,703,870.33Z" transform="translate(-623.1 -136.58)"/><rect class="cls-6" x="35.9" y="777.34" width="481" height="83.97"/><rect class="cls-7" x="35.9" y="767.5" width="481" height="17.92"/></g><g id="图层_18" data-name="图层 18"><path class="cls-7" d="M942.39,817.33s31.29,4.34,40.29,12c0,0,8,2.67,11,8.34s.67,37-2.33,40-7.5,2.29-7.5,2.29l-26.5-2s-20-11.67-20.67-16.33-2.33-35.34,0-39.34A11,11,0,0,1,942.39,817.33Z" transform="translate(-623.1 -136.58)"/><path class="cls-7" d="M853.68,833.5s27-4.25,30-1.25-2.25,40.5-9.25,43.25-49.5,10-52.25,2.75,3.49-36,9-40S853.68,833.5,853.68,833.5Z" transform="translate(-623.1 -136.58)"/><path class="cls-8" d="M1010.11,704.55s-4.51-20-28.81-16.27S945.67,720,945.67,720s.8,55.76,3.07,70.21-1.59,9.79-3.07,23.29-2.51,9.64-.67,15.5c3.68,11.67,30.68,20,36.35,20s6.27-8.68,6.27-8.68,3.94-29.32,0-40.32C987.62,800,1001.09,782,1010.11,704.55Z" transform="translate(-623.1 -136.58)"/><path class="cls-8" d="M922.68,710.5s-40.54-18.62-64.52,6.19c0,0-8.73,50.52-8.73,55.42s-3.5,4.64-5.5,11.64-.83,12.9-2,18.25c-1.8,8.23-2,9.55-3.5,18.25S835.35,849,835.35,849l34.59-4s8.47-.51,10.76-6.76,3-33.26,1.95-42.51C881.78,788,919.43,724.75,922.68,710.5Z" transform="translate(-623.1 -136.58)"/><path class="cls-9" d="M983.85,880s-32.4-4.93-35.45-13.28-1.15-19.32-1.15-19.32l-4.15-.71s-1.75,21,.25,28,9.33,35.66,7,47.33-4.67,13.67-3,17.33S953,945,960,950.33s5.67,11,17.55,16c12.85,5.41,39.45,6.34,39.45,6.34s-2.93-10.88-32.66-45.34C979.38,921.58,983.85,880,983.85,880Z" transform="translate(-623.1 -136.58)"/><path class="cls-9" d="M864.35,874l-8.67-.67L853,854.4l-10,20.93-15.82,1.86S823.68,903.67,820,912s-29.83,18.38-34.66,21.33c-9.34,5.7-14.87,7.79-18.82,12.48a3.1,3.1,0,0,0,2.38,5.1c11.73-.06,36.11-.34,47.77-1.58,15.67-1.66,24,2.68,32.33,1.34,9.22-1.49,3.67-9.34-1-20-4.81-11,8.67-36,14.34-48.67C868.34,868.6,864.35,874,864.35,874Z" transform="translate(-623.1 -136.58)"/><path class="cls-9" d="M794,415.5l-77.24-.37L750.22,504S736,565.33,730.35,569l-.67,4.72,30.88,11.17L787,573.72l2-4.72s-24.51-48.36-22.51-64S794,415.5,794,415.5Z" transform="translate(-623.1 -136.58)"/><ellipse class="cls-9" cx="132.97" cy="278.55" rx="39.3" ry="11.53"/><path class="cls-9" d="M740.47,477.41c20.92,10.89,32.74-2,32.86-2.15a11.13,11.13,0,0,1,3,7.41c0,7.54-8.34,13.65-18.64,13.65S739,490.21,739,482.67A10.57,10.57,0,0,1,740.47,477.41Z" transform="translate(-623.1 -136.58)"/><line class="cls-9" x1="134.58" y1="359.74" x2="137.46" y2="448.3"/><path class="cls-10" d="M1039.68,667.45l6.67,9.37s2.45,6.84-3.34,9.85-9.33,1.61-9.33,1.61l9,9.39s1.65,13.53-9,12c0,0,2.76,14.33-9.12,10.66,0,0-18.21,13.34-42.21,8.34s-31.32-4-46.16-.67-41.81-4-44.83-4.67-16.68,4-29-3.66-12.92-16.34-12.92-16.34-10.75-7.16-11.75-12.25,4-9,4-9-5.33-7.12-6-10.12,4.48-5.82,4.48-5.82Z" transform="translate(-623.1 -136.58)"/><path class="cls-11" d="M1030.18,399.5s-52-25.5-93.5-16.5-73.5,20-85,39.5-4.5,9-4.5,9,16.5-3.85,21.5,2.82,10,18.18,12,29.18,3.25,92,11.62,103.5,12.38,15,12.38,15-43,38-64,82c0,0-6.08,17.5,14.71,27,0,0-5.71,8,7.79,7,0,0-9,10.5,2,9.5l11-1s4.5,8,20,7,10.14-4,10.14-4,3.86,5.5,16.36,6.5,23.67-5,23.67-5,3.33,7.72,19.83,5.11l16.5-2.61s14,7.5,27-.5,7-7.5,7-7.5,9,8.5,17-5,0-19,0-19,9-5.5,9-10-35.5-80.5-35.5-80.5,1-62,8-72S1030.18,399.5,1030.18,399.5Z" transform="translate(-623.1 -136.58)"/><path class="cls-11" d="M888.43,303s-12,6.75-21,2-13.25-15.5-16.5-16.5-7-.75-8.75,1.25-1.25,6.12,0,7.56-5-2.31-7.25,2.19a9.59,9.59,0,0,0,0,8.5s-1.75-2.25-3.75,1-1.25,7.75-1.25,7.75-8.5,7.25-7.5,12.25,6.25,4.25,6.25,4.25a4.26,4.26,0,0,0,2.25,3.5,5,5,0,0,0,4.5,0s-3.5,2.75-1,6a7,7,0,0,0,6.5,2.5s1.5,2.84-3.5,7.17-11,3.72-9.25,9.53,5,3.8,5,3.8-2.5,2.52.25,4.39,9.75-4.39,9.75-4.39,3.5-.25,2.25,3.25-5.25,6.25-4,9.25,4.25,6,6.75,4.75c0,0-.25,7.75,5,7.75s6.5-3,6.5-3,3.25,3.75,6.75.75-2-12.25-2-12.25,7-.75,5.75-3.75-5.5-4.44-5.25-10.55l.25-6.11Z" transform="translate(-623.1 -136.58)"/><circle class="cls-12" cx="313.58" cy="213.08" r="9.67"/><path class="cls-12" d="M946.35,367.94s-12-6.1-19.34-2.19S911,380.21,910.65,380.94s.9,9.81.9,9.81l-11,5.92s-4.12,7.66,8.18,11,38,3.33,45.29-5.34c5.94-7,4.67-16.7,4-20.13-.17-.8-.3-1.26-.3-1.26l-11.33,1.39Z" transform="translate(-623.1 -136.58)"/><path class="cls-13" d="M1003.55,629.41s17,66.68,21,76.09" transform="translate(-623.1 -136.58)"/><path class="cls-13" d="M997.68,415.5s-16,47.5-15.5,89-7.5,76-3.5,106.5,19,103.75,19,103.75" transform="translate(-623.1 -136.58)"/><path class="cls-13" d="M970.18,472s-2,24-3,48.5,2.5,55,0,67.5-9,34.5-7.5,53,8.7,63.86,6.7,73.75" transform="translate(-623.1 -136.58)"/><path class="cls-13" d="M896.18,446.5s20.48,124.5,20.74,135" transform="translate(-623.1 -136.58)"/><path class="cls-13" d="M929.24,513.6s10.11,47.9,12,67.9" transform="translate(-623.1 -136.58)"/><path class="cls-13" d="M898.68,533.5s5.74,27,7.87,38l2.13,11s-31,25-39.5,44.5-15.09,50.11-19.75,58.25" transform="translate(-623.1 -136.58)"/><line class="cls-13" x1="306.13" y1="512.92" x2="306.13" y2="578.17"/><line class="cls-13" x1="265.33" y1="535.42" x2="253.77" y2="567.97"/><path class="cls-13" d="M1003.18,513.6s-4,82.4,4.5,96.9,21.8,29.14,21.8,29.14" transform="translate(-623.1 -136.58)"/><path class="cls-14" d="M950.18,478.5s-5,2.25-4.75,9,1,7.75,0,12.5-4.77,11.25-11.38,12.75-13.86,2.42-19.36-5.75c-7.14-10.59-6.75-13.75-10.75-16.25s-5.25-2-5.25-2,10.75-5.75,18.25,1c0,0,2-8.25,6-12.5,0,0,10.47,6.5,11.11,9C934,486.25,944.68,475,950.18,478.5Z" transform="translate(-623.1 -136.58)"/><path class="cls-15" d="M916.93,491.75s-.88,18.94,12.31,18,4.8-21.5,4.8-21.5" transform="translate(-623.1 -136.58)"/><path class="cls-14" d="M910.92,411.23s-4.89,2.48-4.34,9.21,1.34,7.7.57,12.49-4.25,11.45-10.79,13.25-13.74,3.05-19.6-4.86c-7.61-10.26-7.37-13.43-11.48-15.74s-5.34-1.76-5.34-1.76,10.48-6.24,18.28.17c0,0,1.62-8.34,5.42-12.76,0,0,10.76,6,11.51,8.48C895.15,419.71,905.27,408,910.92,411.23Z" transform="translate(-623.1 -136.58)"/><path class="cls-15" d="M878.31,426s0,19,13.11,17.42,3.82-21.69,3.82-21.69" transform="translate(-623.1 -136.58)"/><path class="cls-14" d="M993.69,443.41s-5.26,1.53-6,8.25-.11,7.81-1.76,12.37-6.3,10.48-13.05,11-14.07.46-18.37-8.4c-5.58-11.49-4.76-14.56-8.37-17.6s-4.91-2.71-4.91-2.71,11.44-4.19,17.93,3.54c0,0,3.13-7.88,7.69-11.53,0,0,9.46,7.9,9.74,10.47C976.63,448.83,988.74,439.18,993.69,443.41Z" transform="translate(-623.1 -136.58)"/><path class="cls-15" d="M958.92,451.87s-3.53,18.64,9.66,19.55,7.77-20.61,7.77-20.61" transform="translate(-623.1 -136.58)"/><path class="cls-14" d="M1018.83,400.24a6,6,0,0,0-5.35,3.94c-1.77,4-1.62,4.83-3.55,7.34s-6,5.26-10.31,4.27-8.83-2.52-9.75-8.88c-1.18-8.25-.06-10-1.7-12.6s-2.52-2.67-2.52-2.67,8-.33,10.44,5.77c0,0,3.52-4.28,7.08-5.64,0,0,4.31,6.79,4,8.44C1007.14,400.21,1016.59,396.62,1018.83,400.24Z" transform="translate(-623.1 -136.58)"/><path class="cls-15" d="M995.52,398.59s-5.89,10.88,2.13,14.07,8.93-11.27,8.93-11.27" transform="translate(-623.1 -136.58)"/><path class="cls-14" d="M989.74,514.51s-5.26,1.55-5.93,8.27-.08,7.81-1.71,12.38-6.25,10.5-13,11.09-14.07.5-18.4-8.34c-5.63-11.46-4.82-14.54-8.44-17.56s-4.93-2.69-4.93-2.69,11.43-4.24,17.94,3.47c0,0,3.11-7.9,7.65-11.57,0,0,9.49,7.87,9.78,10.43C972.7,520,984.77,510.29,989.74,514.51Z" transform="translate(-623.1 -136.58)"/><path class="cls-15" d="M955,523.11s-3.45,18.65,9.74,19.51S972.43,522,972.43,522" transform="translate(-623.1 -136.58)"/><path class="cls-14" d="M962.2,560.25s-4.25,1-5,6.39-.34,6.22-1.8,9.81-5.35,8.15-10.75,8.39-11.24-.09-14.39-7.29c-4.08-9.34-3.33-11.76-6.11-14.29s-3.84-2.33-3.84-2.33,9.26-3,14.19,3.4c0,0,2.75-6.19,6.5-9,0,0,7.29,6.6,7.43,8.66C948.41,564,958.38,556.71,962.2,560.25Z" transform="translate(-623.1 -136.58)"/><path class="cls-15" d="M934.19,565.9s-3.4,14.75,7.09,15.89,6.85-16.19,6.85-16.19" transform="translate(-623.1 -136.58)"/><path class="cls-14" d="M908.68,499.59s-4.89,2.47-4.34,9.2,1.34,7.7.57,12.49-4.25,11.46-10.79,13.26-13.74,3-19.6-4.87c-7.61-10.25-7.37-13.42-11.48-15.74s-5.34-1.76-5.34-1.76,10.48-6.23,18.28.17c0,0,1.62-8.33,5.42-12.76,0,0,10.76,6,11.51,8.48C892.91,508.06,903,496.34,908.68,499.59Z" transform="translate(-623.1 -136.58)"/><path class="cls-15" d="M876.07,514.34s0,19,13.11,17.42,3.82-21.7,3.82-21.7" transform="translate(-623.1 -136.58)"/><line class="cls-16" x1="259.69" y1="357.43" x2="263.03" y2="402.05"/><path class="cls-14" d="M1014.05,539.19s-3.31,1.39-3.91,6.87-.26,6.35-1.39,10.11-4.18,8.7-8.4,9.35-8.78.79-11.25-6.28c-3.2-9.17-2.62-11.69-4.8-14s-3-2.06-3-2.06,7.24-3.74,11.1,2.35c0,0,2.14-6.5,5.07-9.6,0,0,5.7,6.14,5.82,8.21C1003.29,544.09,1011.07,535.89,1014.05,539.19Z" transform="translate(-623.1 -136.58)"/><path class="cls-15" d="M992.17,547.1s-2.64,15.24,5.56,15.59,5.34-17,5.34-17" transform="translate(-623.1 -136.58)"/><path class="cls-14" d="M1015.86,605.56s-4.32,2.11-3.87,7.94,1.12,6.66.41,10.8-3.81,9.88-9.56,11.41-12.09,2.56-17.19-4.32c-6.61-8.91-6.38-11.65-10-13.68s-4.68-1.55-4.68-1.55,9.24-5.33,16,.25c0,0,1.48-7.2,4.85-11,0,0,9.41,5.26,10.05,7.4C1002,612.8,1010.91,602.72,1015.86,605.56Z" transform="translate(-623.1 -136.58)"/><path class="cls-15" d="M987.12,618.14s-.14,16.4,11.4,15.14,3.5-18.75,3.5-18.75" transform="translate(-623.1 -136.58)"/><path class="cls-14" d="M984.82,651.8s-4.56,1.49-4.94,7.32.18,6.75-1.11,10.75-5.16,9.26-11.06,10-12.33.83-16.42-6.68c-5.3-9.76-4.68-12.44-8-14.95s-4.41-2.19-4.41-2.19,9.9-4,15.86,2.49c0,0,2.47-6.92,6.34-10.21,0,0,8.58,6.53,8.92,8.73C970,657,980.33,648.3,984.82,651.8Z" transform="translate(-623.1 -136.58)"/><path class="cls-15" d="M954.6,660.23s-2.43,16.22,9.17,16.58,6.09-18.07,6.09-18.07" transform="translate(-623.1 -136.58)"/><path class="cls-14" d="M950.94,625.48s-4.78,1.33-5.42,7.34-.11,7-1.61,11-5.72,9.33-11.85,9.79-12.75.34-16.65-7.6c-5-10.3-4.3-13-7.57-15.77s-4.46-2.45-4.46-2.45,10.39-3.69,16.26,3.26c0,0,2.86-7,7-10.27,0,0,8.57,7.11,8.83,9.4C935.46,630.23,946.45,621.66,950.94,625.48Z" transform="translate(-623.1 -136.58)"/><path class="cls-15" d="M919.39,632.87s-3.22,16.63,8.74,17.52S935.2,632,935.2,632" transform="translate(-623.1 -136.58)"/><path class="cls-14" d="M917.25,655.69s-5,0-7.19,5.62-2,6.69-4.52,10.21-8,7.46-14,6.26-12.38-3.1-14-11.79c-2.1-11.27-.65-13.71-3.06-17.22s-3.64-3.56-3.64-3.56,11-.76,14.79,7.5c0,0,4.63-6,9.49-8,0,0,6.35,9.15,6,11.43C901.06,656.12,914,650.82,917.25,655.69Z" transform="translate(-623.1 -136.58)"/><path class="cls-15" d="M884.87,654.35s-7.56,15.16,3.72,19.22,11.75-15.82,11.75-15.82" transform="translate(-623.1 -136.58)"/><path class="cls-14" d="M1026.79,665.14a6.15,6.15,0,0,0-2.21,6.45c.9,4.42,1.49,5,1.34,8.24s-2,7.94-6.23,9.65-9,3.12-13.58-1.66c-5.92-6.2-6-8.32-9-9.53s-3.73-.75-3.73-.75,6.57-5,12.32-1.34c0,0,.45-5.66,2.67-8.89,0,0,7.71,3.13,8.4,4.71C1016.82,672,1022.73,663.44,1026.79,665.14Z" transform="translate(-623.1 -136.58)"/><path class="cls-15" d="M1006,677.52s1.46,12.58,10.18,10.51.89-14.69.89-14.69" transform="translate(-623.1 -136.58)"/><path class="cls-14" d="M931.34,604.57a6.15,6.15,0,0,0-6.41,2.32c-2.89,3.46-3,4.29-5.58,6.2s-7.43,3.43-11.44,1.17-8.07-5.08-7.19-11.63c1.13-8.5,2.73-9.89,1.83-12.94s-1.76-3.38-1.76-3.38,8,2,8.76,8.77c0,0,4.69-3.19,8.61-3.49,0,0,2.38,8,1.59,9.51C919.75,601.1,930.13,600.34,931.34,604.57Z" transform="translate(-623.1 -136.58)"/><path class="cls-15" d="M908.66,596.08s-8.9,9-1.83,14.51,12-8.49,12-8.49" transform="translate(-623.1 -136.58)"/><path class="cls-17" d="M1010.11,586.31l3.94,11.36s-28.77,16.75-46.57,14.21c-5.4-.77-13.86-3.56-23-7.07-21-8.06-45.78-19.92-45.78-19.92V569s57.94,26.15,68.8,27.08S1010.11,586.31,1010.11,586.31Z" transform="translate(-623.1 -136.58)"/><path class="cls-16" d="M933.67,608.5c-1.16,4-1.32,6.49,6.84,9.08l17.73-8-13.78-4.82Z" transform="translate(-623.1 -136.58)"/><rect class="cls-14" x="962.2" y="591.67" width="13.98" height="24.67" rx="3.99" transform="translate(1315.27 1071.42) rotate(180)"/><rect class="cls-17" x="964.82" y="596.09" width="8.75" height="15.43" rx="3.99" transform="translate(1315.28 1071.03) rotate(180)"/><ellipse class="cls-18" cx="866.8" cy="459.48" rx="19.28" ry="39.08" transform="translate(-718.74 132.72) rotate(-16.75)"/><ellipse class="cls-18" cx="1019.91" cy="458.2" rx="60.13" ry="22.95" transform="translate(-160.19 1291.12) rotate(-84.31)"/><path class="cls-18" d="M900.36,390.75s-15.26,2.92-21.31,5.92a40.2,40.2,0,0,0-10,7.15s22.61,48.79,37.31,53c0,0,5.53,8.19,5.78,12.19s29.29,2.19,32.58-7.87-34-36.46-34-36.46S899.61,397.17,900.36,390.75Z" transform="translate(-623.1 -136.58)"/><path class="cls-19" d="M964.82,390.75s-1.51,36.77-27.49,38.34-36.48-11.9-36-18.43l.49-6.52S955,416.17,964.82,390.75Z" transform="translate(-623.1 -136.58)"/><path class="cls-20" d="M957.68,380.94c-2.11-5.22,13.58,23.72-22.81,26.1-26.19,1.71-33.51-.76-34.51-14.76" transform="translate(-623.1 -136.58)"/><path class="cls-21" d="M933.07,293.8s1.78-9.47,8.2-7.47,25.74,10,28.91,14,3.39,14,3.39,14,28,34.66,14,96.33c0,0-26.7,67.66-79.49,32.83s-58.7-18.16-58.7-18.16-2.75-9,3.25-14.67c0,0-1.33-6,9.67-10.33s25.21,5,29.77,7.18,22.86,25.16,45.21,17.16,29.74-41,25.71-77.34L959.68,342s.07-32.25-7.77-38.35S938.82,293.74,933.07,293.8Z" transform="translate(-623.1 -136.58)"/><path class="cls-3" d="M967.48,335.33s2.31,2.9,4.2-9.05l1.89-11.95" transform="translate(-623.1 -136.58)"/><path class="cls-8" d="M1025.68,418s-7-1.39-13,32.81-8.29,43.9-1.5,48.21c8.25,5.23,15.17,8.65,24.17,8s-21,39.1-23.34,41.88-5.31,14,3.85,21.25,15.82,10.79,25.15,0S1073.35,522,1073.35,522s6.66,8.94,14.66-1,25.67-36.62,10.67-59.82C1087.76,444.24,1063.74,425.34,1025.68,418Z" transform="translate(-623.1 -136.58)"/><path class="cls-3" d="M1073.35,522s8-16.6-6.67-23-22-1.55-22-1.55" transform="translate(-623.1 -136.58)"/><path class="cls-8" d="M855.39,436s18,3.67,23.66,46.67,14.63,78.07-15.37,71.53-28.33-11.78-33-18.32-31.33,6.76-31.33,6.76-13.67,4-13.67-17S793,499,793,499s11.67,3,18.67,0c0,0-3.67-7,6.67-14.69,0,0-4.67-4.33,6.33-10.66S849.76,428.33,855.39,436Z" transform="translate(-623.1 -136.58)"/><path class="cls-3" d="M824,495.5s21.91-4.66,24.79,11.09-13.54,25.26-13.54,25.26" transform="translate(-623.1 -136.58)"/><line class="cls-3" x1="188.58" y1="362.43" x2="200.91" y2="358.92"/><path class="cls-22" d="M1029.48,571.33s7.39-19.51-13.62-16.34c0,0-14.08,5-18.2,5.18s-8.91,7.07-14.15,10a35.78,35.78,0,0,1-8.33,3.59s-1.34,5.09,2.74,5.27,9.2-2.37,9.2-2.37l-13.55,19.17s1.78,6.54,5.28,3.88a33.34,33.34,0,0,0,6-6.06l-2.47,5.22s-2.37,6-1.05,7.17c4.49,3.82,8.44-4.17,8.44-4.17l2-2.66-3.33,5.88s1.82,3.55,5,2.25,11.32-15.63,11.32-15.63l2.65,1.71s-4.61,4-5.25,5.12-1.69,6,1.4,4.55,10.5-8.38,10.5-8.38.49-9.5,1.81-11.84S1029.48,571.33,1029.48,571.33Z" transform="translate(-623.1 -136.58)"/><line class="cls-3" x1="372.83" y1="444.08" x2="361.72" y2="457.03"/><line class="cls-3" x1="378.08" y1="449.73" x2="368.66" y2="462.58"/><path class="cls-22" d="M794.51,506.67s6,2.53,6.67,6.68-1.67,12.32-1.67,12.32-12.66,2.5-15.66,4.83-11.67,1.81-11.67,1.81-1.67-4.58-.67-14.86a30.37,30.37,0,0,1-2.33-7.39,26.72,26.72,0,0,1,.83-7.56s-9,1-8.5-7c0,0,14.5-1,18.67,7.67S794.51,506.67,794.51,506.67Z" transform="translate(-623.1 -136.58)"/><path class="cls-22" d="M755,500.33s1.67,1.69,1.84-3.07-11-3.58-12.67-3.25a3.65,3.65,0,0,0-2.33,5s-7.11,5.77-.31,10.54c0,0-6.36,4.61.81,8.94,0,0-4.24,7.89,3,8.67,7.87.84,12.83.83,12.83-4.17s-6.5-4.17-6.5-4.17,7.5-1.12,7.5-5.23-4.67-4-4.67-4,6.67.44,6-3.89S759,500.83,755,500.33Z" transform="translate(-623.1 -136.58)"/><line class="cls-3" x1="119.58" y1="362.43" x2="131.91" y2="363.75"/><line class="cls-3" x1="119.58" y1="372.98" x2="132.97" y2="373.2"/><line class="cls-3" x1="119.24" y1="381.92" x2="130.12" y2="381.92"/><ellipse class="cls-12" cx="910.65" cy="354.33" rx="29.7" ry="32.33" transform="translate(-680.26 82.88) rotate(-13.33)"/><circle class="cls-23" cx="288.45" cy="215.84" r="3.42"/><circle class="cls-23" cx="271.19" cy="220.6" r="3.23"/><line class="cls-16" x1="280.24" y1="220.93" x2="282.91" y2="229.79"/><path class="cls-16" d="M912.1,365.75a11.3,11.3,0,0,1-4.06,3.86c-2.63,1.37-7.5-.38-7.5-.38" transform="translate(-623.1 -136.58)"/><path class="cls-24" d="M956.85,342.33s-8-23.33-19-27.16-41.67-14.34-52-2.84-14,34.17-12.17,40.09a22.1,22.1,0,0,0,6.17,9.53s2,.38.16,3.05-6.78,0-6.78,0,.95,4.27,3.95,5.14a16.9,16.9,0,0,0,5.33.69l-2,4.67,3.84-1.67s-1.84,1.84,3.5,4.84,12.69,2.16,12.69,2.16-10.36-7.66-11.69-15.08l-1.34-7.42,4.37,1s-7.53-2-8-8.16,1-14.25,1-14.25-1.49-6.92,3.34-12.09,20-10.66,28.67-7,12.83,12.17,11.5,16.5a19.83,19.83,0,0,1-5,7.67l8.66,2a3.87,3.87,0,0,0-1,4.31c1,2.67,5.67,4.84,5.67,4.84s-3.44-3.84-2.64-5.67,9.31-6.33,9.31-6.33,4,4.32,3,8.5-1.28,6.12-3.6,7.52-6.07,1.31-6.07,1.31,2.83,4.33,4.5,4.83c0,0-1.5,6.67,1,8.84S954,373.83,954,373.83s-3.16-1.56-3.16-3.69V368h0l6-5.5s5.83-.5,6.16,1.83-2.33-16.16-3.66-18.16S956.85,342.33,956.85,342.33Z" transform="translate(-623.1 -136.58)"/><path class="cls-25" d="M959.68,342s-33.61-15.17-53.36-11.5S881.68,340,879.93,344a16,16,0,0,0,0,11.82s-7,6.58-14.75,0-9-18.84-5.75-27.84,16.15-22.94,34.86-29.25c17.81-6,36.31-5.84,44.64-3.25,11.25,3.5,16.25,10.5,18.25,19.5S959.68,342,959.68,342Z" transform="translate(-623.1 -136.58)"/><circle class="cls-14" cx="269.2" cy="176.29" r="3.87"/><circle class="cls-26" cx="296.91" cy="222.17" r="4.42"/><circle class="cls-26" cx="269.02" cy="230.64" r="4.06"/><path class="cls-27" d="M1024.56,430.86s92.12,23.47,65.79,64.14" transform="translate(-623.1 -136.58)"/><path class="cls-27" d="M1022.68,446.5s40.85,7,55.67,27.17c7.25,9.89,0,23.59,0,23.59" transform="translate(-623.1 -136.58)"/><path class="cls-27" d="M1022.68,465.67s30.89-1.62,39.67,13c4,6.66,1.62,11.66,1.62,11.66" transform="translate(-623.1 -136.58)"/><path class="cls-27" d="M859.94,443.49S837.31,467.56,832.35,478c-3.67,7.7-2.67,12.36-2.67,12.36" transform="translate(-623.1 -136.58)"/><path class="cls-27" d="M865.35,453.46s-18.37,22.87-20.6,28.87a26,26,0,0,0-1.9,10.17" transform="translate(-623.1 -136.58)"/><polygon class="cls-9" points="150.23 338.67 150.22 338.68 150.22 338.67 150.23 338.67"/><path class="cls-9" d="M740.15,477.25l.43,0a1.18,1.18,0,0,1-.11.19Z" transform="translate(-623.1 -136.58)"/><path class="cls-28" d="M753.22,426.63s-1.87-45.9,42.15-52v6.27l8.31.14s-13.81,38.82-25.24,43.53S753.22,426.63,753.22,426.63Z" transform="translate(-623.1 -136.58)"/><path class="cls-28" d="M768.68,390.75s-15.54.92-19.1,4.58l11.91,15.33s6.52-4.91,8.52-10S768.68,390.75,768.68,390.75Z" transform="translate(-623.1 -136.58)"/><path class="cls-3" d="M794,393.91s-8.06,6.89-12.61-3.16c0,0-1.87.34-5.08-3.66s1.22-6.78,1.22-6.78" transform="translate(-623.1 -136.58)"/><path class="cls-3" d="M784.58,398.59s-6,5.08-8.26,1.08a8.57,8.57,0,0,1,0-8s-1.73,2.91-5.67,0-1.1-5.7-1.1-5.7" transform="translate(-623.1 -136.58)"/><circle class="cls-29" cx="165.03" cy="249.37" r="3.88"/><circle class="cls-30" cx="166.45" cy="248.62" r="1.88"/></g><g id="图层_20" data-name="图层 20"><rect class="cls-3" x="35.9" y="34.03" width="481" height="827.27"/></g><text class="cls-31" transform="translate(95.04 910.88)">P<tspan class="cls-32" x="29.17" y="0">A</tspan><tspan class="cls-33" x="63.64" y="0">GE o</tspan><tspan class="cls-34" x="180.16" y="0">f</tspan><tspan class="cls-35" x="203.15" y="0" xml:space="preserve"> CUPS </tspan></text></svg>