<svg id="Layer_30" data-name="Layer 30" xmlns="http://www.w3.org/2000/svg" viewBox="0 0 555.47 960.99"><defs><style>.cls-1{fill:#fff;stroke-linecap:round;stroke-linejoin:round;}.cls-1,.cls-10,.cls-11,.cls-3,.cls-4,.cls-5,.cls-6,.cls-7,.cls-8,.cls-9{stroke:#231815;}.cls-1,.cls-10,.cls-11,.cls-3,.cls-4,.cls-5,.cls-7,.cls-8,.cls-9{stroke-width:2px;}.cls-2{font-size:46px;fill:#231815;font-family:ArialRoundedMTBold, Arial Rounded MT Bold;letter-spacing:0.05em;}.cls-3{fill:#036eb8;}.cls-10,.cls-11,.cls-3,.cls-4,.cls-5,.cls-6,.cls-7,.cls-8,.cls-9{stroke-miterlimit:10;}.cls-4{fill:#604c3f;}.cls-5{fill:#00a5c4;}.cls-10,.cls-6{fill:none;}.cls-7{fill:#f9d1b9;}.cls-8{fill:#ffd21a;}.cls-9{fill:#bdd3d0;}.cls-11{fill:#ffc631;}.cls-12{fill:#f6de00;}</style></defs><rect class="cls-1" x="1" y="1" width="553.47" height="958.99" rx="31.02"/><text class="cls-2" transform="translate(122.99 914.15)">THE HERMIT</text><rect class="cls-3" x="32.16" y="42.94" width="485.17" height="825.22"/><path class="cls-4" d="M655.64,928s26.64.51,34.77-8.63c0,0,24.38,30.47,65,0,0,0,29.46,6.6,36.57,0l7.11-6.61,143.28,10.08s20.32-1.44,34.51-16.68c0,0,38.58,62.64,132,26.75l31.9,5.76v71.94H655.64Z" transform="translate(-623.49 -142.45)"/><path class="cls-5" d="M668.07,1010.61s32.51-30.3,51.81-44.52,37.59-9.14,48.76-24.38,16.71-19.79,16.71-19.79L798.1,897H908.82l25.4,9.14a164.59,164.59,0,0,0,34.54,36.57c21.33,16.25,20.31,33.52,36.57,38.6s29.31,29.28,29.31,29.28Z" transform="translate(-623.49 -142.45)"/><path class="cls-6" d="M1026.66,278.39s5.22-10.73,21.33,0,11.68,20.31,11.68,20.31" transform="translate(-623.49 -142.45)"/><path class="cls-7" d="M1053.5,252.91s40.2-3.14,47.31,0,8.13,17.35,8.13,17.35-2,19.3-10.16,19.3-14.63-13.21-32.71-9.14Z" transform="translate(-623.49 -142.45)"/><polygon class="cls-8" points="345.26 105.46 353.42 105.46 353.39 197.39 341.2 197.39 345.26 105.46"/><path class="cls-9" d="M878.35,231.66s0,0,22.88,6.09,21.31,6.1,39.59,10.67,7.62,10.67,18.29,15.24,16.76-1.53,15.23,10.66-6.09,21.33-13.71,35.05a165.81,165.81,0,0,1-16.76,24.38s0,7.62,13.71,0S918,371.84,971.3,326.13s47.45-62.47,63.34-68.57,18.94-10.66,25,6.1,10.67,13.71,0,35-25.69,28.95-25,41.14,14.37,76.19,6.75,91.43-16.76,0-16.76,0,9.14,54.85,1.52,56.37a43.87,43.87,0,0,1-15.24,0s-3,22.86-10.66,18.29l-7.62-4.57s7.62,123.42,0,132.56L985,643.06s16.76,100.57-1.52,117.33-39.62,0-39.62,0L942.34,928s-26.32,12.19-29.16,0c0,0,9.4,16.76-11.95,12.19s-35.07-13.71-35.07-13.71V941s-16.76,13-28.95,0-18.29-19.07-18.29-19.07-10.66,6.09-15.23-1.53l-4.58-7.62-13.71,4.57V678.11c0-77.71-1.52-300.17,12.19-324.55s13.71-33.53,33.52-38.1S875.3,262.13,878.35,231.66Z" transform="translate(-623.49 -142.45)"/><path class="cls-10" d="M844.83,321.33s4.06,7.85,18.28,5.82,28.95-7.57,40.38-5.82,40.38,12.42,40.38,12.42-7.62-7.62-13.71-11.68-12.19-8.13-28.93-12.19S863.11,316,863.11,316" transform="translate(-623.49 -142.45)"/><path class="cls-10" d="M968.76,333.75c14.22-3.56,21.33-6.6,29.45,5.58s12.7,148.31,12.7,148.31" transform="translate(-623.49 -142.45)"/><path class="cls-10" d="M997.2,316a53.82,53.82,0,0,1,37.44,23.87" transform="translate(-623.49 -142.45)"/><path class="cls-10" d="M976.88,424.66l0,340.35" transform="translate(-623.49 -142.45)"/><path class="cls-10" d="M925.71,525.23,913.18,928" transform="translate(-623.49 -142.45)"/><path class="cls-10" d="M838.73,538.43" transform="translate(-623.49 -142.45)"/><path class="cls-10" d="M798.1,452.09" transform="translate(-623.49 -142.45)"/><path class="cls-10" d="M816.38,538.43" transform="translate(-623.49 -142.45)"/><path class="cls-10" d="M867.17,688.78" transform="translate(-623.49 -142.45)"/><path class="cls-7" d="M1066.07,413.49s16.46,6.09,42.87,0V333.75h-42.87Z" transform="translate(-623.49 -142.45)"/><path class="cls-11" d="M1053.5,333.75s-.43-25.79,36.14-24.83,38.6,24.83,38.6,24.83a199.46,199.46,0,0,1-37.37,6.09A80.7,80.7,0,0,1,1053.5,333.75Z" transform="translate(-623.49 -142.45)"/><line class="cls-10" x1="467.38" y1="147.11" x2="466.15" y2="166.47"/><rect class="cls-12" x="459.19" y="216.39" width="9.65" height="50.28"/></svg>