<svg id="Layer_35" data-name="Layer 35" xmlns="http://www.w3.org/2000/svg" viewBox="0 0 555.47 960.99"><defs><style>.cls-1{fill:#fff;stroke-linecap:round;stroke-linejoin:round;}.cls-1,.cls-10,.cls-11,.cls-12,.cls-13,.cls-14,.cls-15,.cls-3,.cls-4,.cls-5,.cls-6,.cls-7,.cls-8,.cls-9{stroke:#231815;stroke-width:2px;}.cls-2{font-size:46px;font-family:ArialRoundedMTBold, Arial Rounded MT Bold;letter-spacing:0.05em;}.cls-2,.cls-9{fill:#231815;}.cls-3{fill:#d7f3f0;}.cls-10,.cls-11,.cls-12,.cls-13,.cls-14,.cls-15,.cls-3,.cls-4,.cls-5,.cls-6,.cls-7,.cls-8,.cls-9{stroke-miterlimit:10;}.cls-4{fill:#6e8947;}.cls-5{fill:#ff8200;}.cls-6{fill:#00baeb;}.cls-7{fill:#f4e73f;}.cls-8{fill:#f9c2b6;}.cls-10{fill:none;}.cls-11{fill:#ffc631;}.cls-12{fill:#6fd3f2;}.cls-13{fill:#741798;}.cls-14{fill:#ff574a;}.cls-15{fill:#f6de00;}</style></defs><rect class="cls-1" x="1" y="1" width="553.47" height="958.99" rx="31.02"/><text class="cls-2" transform="translate(42.16 914.15)">THE HANGED MAN</text><polygon class="cls-3" points="517.34 868.16 32.16 868.16 32.16 219.27 32.16 202.51 32.16 42.94 517.34 42.94 517.34 868.16"/><path class="cls-4" d="M1384.22,231.66s24.38,11.73,28.45,38.88l-28.45-7.39s26.42,30.47,14.23,52.82L1372,293.88s20.31,10.92,20.31,39.87H1372s8.12,34.94,0,50.23l-21-25.14V231.66Z" transform="translate(-1318.84 -131.24)"/><path class="cls-4" d="M1808.84,220.48s-16.26,5.18-26.42,31l26.42-3.6s-26.42,14.54-26.42,38.25h26.42s-14.23,19-13.21,53.88L1818.06,316s-7,16.25,0,50.79l18.12-33V220.48Z" transform="translate(-1318.84 -131.24)"/><path class="cls-4" d="M1705.22,220.48s-22.35,3.14-20.31,31l10.09-3.6s-6,3.68,10.22,25.71l16.26-22.11Z" transform="translate(-1318.84 -131.24)"/><path class="cls-5" d="M1351,198.14c21,4.06,425.16,22.34,485.18,0v33.52s-189.87-13.21-202.06,16.25-19.83,751.49-19.83,751.49h-65.5s14.22-690.93,2-725.78S1351,247.91,1351,247.91Z" transform="translate(-1318.84 -131.24)"/><polygon class="cls-6" points="313.54 555.65 355.01 573.81 324.72 604.79 313.54 561.74 313.54 555.65"/><ellipse class="cls-7" cx="268.55" cy="720.06" rx="103.43" ry="93.38"/><circle class="cls-8" cx="267.96" cy="714.79" r="39.26"/><circle class="cls-9" cx="257.64" cy="723.37" r="5.18"/><circle class="cls-9" cx="279.1" cy="723.25" r="5"/><path class="cls-10" d="M1577.67,830.48s11.39-4.57,19.92,0" transform="translate(-1318.84 -131.24)"/><path class="cls-11" d="M1547.53,841.15s.5,25.82,7.35,44.15,3.81,33.56,3.81,33.56l7.62-23.62s8.93,10.21,5,29l10.36-21.33s10.53,27.43,6,45.71c0,0,16.55-22.17,15.32-44.19,0,0,10.55,5.33,11.34,16.76,0,0,16.78-28.95,17.54-51.8s-5.77-28.19-5.77-28.19,0,37.82-23.11,40.67-26.47-12.48-26.47-12.48v14.58S1554.66,886.1,1547.53,841.15Z" transform="translate(-1318.84 -131.24)"/><path class="cls-8" d="M1567.93,811.6s-5.79-17.74-15.51-17.71,2.68-23.6,29.24-22.83,43.2-2.29,44.4,11.42-9.12,13.71-9.12,13.71-2.67-5.32-6.44,5.34-1,12.49-1,12.49-8.27-8.21-19.81-7.25A90.85,90.85,0,0,0,1567.93,811.6Z" transform="translate(-1318.84 -131.24)"/><path class="cls-12" d="M1596.58,781s25.06-6.64,24.58,3.81-10.66,16.76-10.66,16.76,2.28,8.38,34.28,0,95.23-19.81,89.14-60.95S1672.21,701,1672.21,701s-16-1.53-17.52,12.19,0,18.28,0,18.28-22.74,1.52-22.8-68.57c0,0,7.56-13.71,19.75-36.57s-12.19-22.85-12.19-22.85,24.32-66.28-46.51-68.57c0,0-28-4.58-37.58,9.9,0,0-9.62-23.61-24.1-19,0,0,6.86,56.37-19,67.8,0,0-11.43,4-11.43-6.75,0,0-13,17.42,25.14,49.42l1.52,46.47s-97.51,26.67-102.85,54.85,4.57,61.55,137.9,67.73c0,0,1.16-9.88-10.08-11.37s13.76-14.45,25.25-16l9.13-13.71Z" transform="translate(-1318.84 -131.24)"/><polygon class="cls-10" points="169.76 607.05 208.62 584.96 205.57 607.05 169.76 607.05"/><path class="cls-10" d="M1519.07,611.74s23.9-11.33,30-32.67,6.24-34.29,6.24-34.29" transform="translate(-1318.84 -131.24)"/><path class="cls-10" d="M1452,742.11s18.67,6.37,36.57-3.81" transform="translate(-1318.84 -131.24)"/><path class="cls-10" d="M1654.69,731.44c13.14,10.91,57.9,1.52,57.9,1.52" transform="translate(-1318.84 -131.24)"/><path class="cls-10" d="M1690.82,716.2s-23.17-1.6-23.94,19.77" transform="translate(-1318.84 -131.24)"/><line class="cls-10" x1="208.61" y1="551.44" x2="208.61" y2="584.96"/><path class="cls-10" d="M1626.16,558.5s13.18,34.1-.1,53.24" transform="translate(-1318.84 -131.24)"/><path class="cls-10" d="M1500.79,766.49s16-4.58,23.62-28.19" transform="translate(-1318.84 -131.24)"/><path class="cls-10" d="M1547.53,634.68s-17,44.19-20.08,73.9" transform="translate(-1318.84 -131.24)"/><path class="cls-10" d="M1597.94,634.68s14.59,47.27,11.8,86.09" transform="translate(-1318.84 -131.24)"/><path class="cls-10" d="M1604,645.35s10.06,7.62,14.75,37.33" transform="translate(-1318.84 -131.24)"/><path class="cls-10" d="M1720.21,736s-7.29-19.08-41.36,0" transform="translate(-1318.84 -131.24)"/><path class="cls-10" d="M1593.59,541.74s10.85,19.8,4.35,48" transform="translate(-1318.84 -131.24)"/><path class="cls-13" d="M1519.07,639.25s20.41-29.71,67.73-24.37,50.35,38.36,50.35,38.36-4,15.78-11,10.78-12-33.15-39.36-36.19-55.54,17.52-55.54,17.52Z" transform="translate(-1318.84 -131.24)"/><path class="cls-14" d="M1610.09,334.51s-.36,25.14-6.07,38.85-12.1,32.76-10.43,72.38c0,0-15.18,53.05-15.48,70.85l-.3,17.81s28.6-3.8,51.21,11.29l3-211.18Z" transform="translate(-1318.84 -131.24)"/><path class="cls-14" d="M1503.57,593.21s-35.54-55.28-39.35-79.66,7.36-30.48,19.68-31.24,100.18,0,100.18,0l-6,34.28-46.85,9.15s8.59,39.6-10.32,61C1520.94,586.79,1506.36,599.63,1503.57,593.21Z" transform="translate(-1318.84 -131.24)"/><path class="cls-14" d="M1632,482s5.17,7.2,29.55-4.23,17.31,0,17.31,0l-24.16,39.62s-17.73-12.91-25.16-7.63Z" transform="translate(-1318.84 -131.24)"/><path class="cls-15" d="M1604,304c1.91-7.62,17.91-17.41,18.67-30.42s25.14-26.57,25.14-26.57,17.3,19.5-10.68,60.77L1632,334.51h-21.9Z" transform="translate(-1318.84 -131.24)"/><path class="cls-10" d="M1610.09,315.46s10.63-13.76,21.9-7.64" transform="translate(-1318.84 -131.24)"/><path class="cls-15" d="M1670.68,472.66l33.53-19.3s9.8,4.57-13.39,35.81c0,0-21.65,16.76-23.94,31.23s-17.53,0-17.53,0v-6.46S1672.21,504.15,1670.68,472.66Z" transform="translate(-1318.84 -131.24)"/></svg>